<svg id="Laag_1" data-name="Laag 1" xmlns="http://www.w3.org/2000/svg" viewBox="0 0 1945.76 591.68"><defs><style>.cls-1{fill:#006c77;}.cls-2{fill:#fff;}</style></defs><title>stad</title><path class="cls-1" d="M1395.58,387.67l-1.1,147h551.28l-.3-97.48-4,0c.1-3.18-.21-6.25-10.35-11.37S1919.26,413,1919.26,413l.1-9.43,1.43-1.64v-1.13l-4.71-.1v-.41c0-.41,2.05-3-7.37-6.66s-12.7-13.93-12.7-13.93l1.54-1-2.15-.72-.1-17.21.93-1.74-8.81-6.55-.1-5.33h-4.4v5.54l-8,6.35,1.23,2.05.41,9.43-37.91,21.51-70.07-.61-.41-30.33,2.05-3.89-.21-5.53,1.84-1v-1.43l.21-1.84-1-39.13,2.67-1.43.21-1c-5.12-2.46-8.61-9-8.61-9l-10.86-28.28s-6.56,23.36-8.2,29.09-9.63,10.45-9.63,10.45l4.3,2v13.32l-39.54-37.91-.41-2-29.09-.62-.41,2.46-15.78,23.56v-3.28s3.69-3.69,2.67-4.3c-5.28-3.16-8.2-9.63-8.2-9.63l-10.86-29.71s-5.94,22.54-7.78,29.09-6.15,8.4-6.15,8.4l-3.69,3.69,3.69,2.46v33.81h-1L1560.86,338v-9.62s-.14-15.44,0-16.53c1.08-8.61,1-8.33.82-8.88s-.82-.27-.82-.27l-.27,4.78-1-1.92v-6l1.23-1-.82-.68a2.92,2.92,0,0,1-1.45-2l.59.32,3.84-7-1.19-.16s-4-.63-4.47-9.41h-.19v-.09h-1.64v.69c-.5,8.39-4.42,9-4.45,9l-1.27.12,3.92,6.79.43-.25c0,1-1.91,2.78-1.91,2.78l1,.55.13,6.69-.82,2.19-.14-5.6h-.55l-1,.82a50.25,50.25,0,0,0,1,8.6v15l-10.79-17.44V295.27c.95,0,1.64-.12,1.64-.33,0-.69-.72-7.68-3.48-7.68s-3.59,7.79-3.59,7.79.81.06,1.88.13v8.66l-9.77-15.78v-2.63h-1.63v-35h.32l.67-3.9,2.6-.89-6.25-3.12-6.25,2.12,2.11,1.23.77,4.68h.09V275.8l-11.48-18.54V239.74c.95,0,1.64-.12,1.64-.33,0-.69-.72-7.67-3.48-7.67s-3.58,7.78-3.58,7.78.81.07,1.88.13v11.87l-11-17.79-.6-3.93-.2-15.88-1.23-6.35.51-7.38-.63-.61.42.23,3.85-7-1.19-.16s-4-.63-4.47-9.41h-.19v-.09h-1.64v.7c-.5,8.38-4.3,9-4.45,9L1483,193l3.91,6.79.77-.45-.95.86.41,7.38-1.43,6.56v14.75L1473.44,248v-9.09c.95,0,1.64-.12,1.64-.33,0-.68-.72-7.67-3.48-7.67s-3.58,7.78-3.58,7.78.81.06,1.88.13v14.71l-13.45,20.95v-26h.32l.67-3.9,2.6-.89-6.25-3.12-6.25,2.12,2.12,1.23.77,4.68h.08v35h-1.43V286l-10.86,16.91V292.19c1,0,1.64-.12,1.64-.33,0-.68-.72-7.67-3.49-7.67s-3.59,7.78-3.59,7.78.81.06,1.88.13v16.31l-11.26,17.54v-2.21s-.14-15.44,0-16.53c1.15-8.61,1-8.33.87-8.88s-.87-.28-.87-.28l-.29,4.79-1-1.91v-6l1.31-1-.87-.68a2.9,2.9,0,0,1-1.57-2.13l.82.45,3.85-7-1.19-.16s-4-.63-4.47-9.41h-.19V275h-1.64v.69c-.5,8.39-4.42,9-4.45,9l-1.27.12,3.85,6.67c-.2,1-2,2.65-2,2.65l1,.55.15,6.69-.87,2.18-.15-5.6h-.58l-1,.82a47.14,47.14,0,0,0,1,8.6v15.84h-2.62l.14,1.37,1,1.09v1l-3.21.32.21-3.28,1.44-2.05h-8.61l1.84,2.05-.62,40.36h-2l.21-3.89,1-1.44h-7l1,1.84V383Zm161.59-101.09a7.29,7.29,0,0,0,3.37,3.81l-2.69,4.86-.67,0Zm-4.79,4a6.92,6.92,0,0,0,3.15-3.26v7.87l-.48,0Zm-2,47.21-3.46-.07a9.35,9.35,0,0,0,3.47-2.17Zm-9.36-20.43,9.35,15.12-.13,0c-1.37,3.69-6.21,4.43-9.23,4.52Zm-3.55,1a10.55,10.55,0,0,0-4.63-2.41,9.62,9.62,0,0,0,4.63-2.85Zm-9.77-22.5,9.18,14.83c-1.58,3.4-6.28,4.07-9.18,4.15Zm0,21.33c2.89,0,8.22.57,9.77,4.39v16l-1.42,0-8.35-14.63Zm-7.58-33.58v1.84h-.53a9.27,9.27,0,0,0-5.84-3.91,10.53,10.53,0,0,0,3.85-2ZM1508.68,265l8,12.86c-2.09,2-5.61,2.43-8,2.49Zm0,17.7c2.93,0,8.34.59,9.81,4.52l.23-.08v19.9l-10-17.59Zm-3.55-23.44v3.36a9.88,9.88,0,0,0-5.28-3.11,10.25,10.25,0,0,0,4.07-2.2ZM1495.05,249l1.86-2.93,6,9.72c-2,2.08-5.5,2.6-7.93,2.69Zm-.07,11.84c3,0,8.14.7,9.57,4.52l.58-.22v18.17L1495,265.45Zm-4.61-70.65a7.28,7.28,0,0,0,3.37,3.81l-2.66,4.8-.71-.68Zm-4.79,4a6.92,6.92,0,0,0,3.16-3.26v7.51l-.46.42Zm-2,45.6-.35,1.63-2,4.71,1.64,2.87-.11,9.11c-2.76-.11-6.85-.78-8.57-3.62Zm-10.19,16.73a9.76,9.76,0,0,0,4.53,2.71,10.61,10.61,0,0,0-4.53,2.31Zm0,8.13c1.59-3.46,6.39-4.12,9.29-4.17l-.06,5.34-9.22,14.5Zm-3.55,21.24-11.81,18.58V286.9l.25.09c1.88-5.05,10.29-4.57,11.56-4.47Zm0-24.71v19c-1.92.1-7.7.11-10.24-3Zm-13.45,21,2.17-3.38a9.93,9.93,0,0,0,4.42,2.54,10.15,10.15,0,0,0-5,2.75v-.41h-1.64Zm-7.38,11.48V311.6c-2.24.06-7.3-.13-9.69-3Zm-10.86,16.91.13-.21a10,10,0,0,0,4.35,2.46,10.7,10.7,0,0,0-4.48,2.27Zm0,7.54c2-4.14,8.76-4.14,10.86-4v4.61l-10.86,17.08Zm-3.55-2v16.9c-2.16.05-6.73-.14-9.22-2.54Zm-11.26,17.53,1-1.59a10.44,10.44,0,0,0,3.92,2.06,10.17,10.17,0,0,0-4.94,2.74Zm0,23.81V339.67l.24.09c1.71-4.58,8.77-4.61,11-4.5v6l-11.41,17.94h0Zm-3.63-75.41a7.3,7.3,0,0,0,3.37,3.82l-2.7,4.88-.67-.05Zm-4.79,4a6.92,6.92,0,0,0,3.15-3.26v7.86h-.5Z"/><path class="cls-1" d="M1399.67,530.65V420h-1.53l0-10-10.63-.06V398.07l-8.79-.06v-11.1h-7.11V376.64l-7-.06v-8.73l-6.11,0v-8.14h-.82v-.07l-4.31,0v8.14l-6.11,0v8.74l-7,.06v10.27h-7.11V398l-8.79.06v11.92l-10.63.06,0,10h-72.11c.81-1,4.36-5.7-1.75-8.33l-.09-3.21s-4.65-2.21-4.86-8.89c0-.09,0-.19,0-.28,0-.57.4-.33.4-.33l2.57-1-.22-.8-1.37-.85.14-1.18-1.24-1.18,1-1.61-4.3-.09s2.93-5.09-2.92-6.34c-.22,0-.31-1.23-.31-1.23s-7.88-2.46-8.17-8.64-.06-5.8-.06-5.8l.88-1.07-.24-.95-.53-.19.06-3.34.83-1.58.95-.25a11.7,11.7,0,0,0-10-7.44v-.07c-.22,0-.42,0-.64,0s-.42,0-.64,0v.07a11.71,11.71,0,0,0-10,7.44l.95.25.83,1.58.06,3.34-.53.19-.24.95.89,1.07s.23-.38-.06,5.8-8.17,8.64-8.17,8.64-.09,1.18-.31,1.23c-5.85,1.25-2.92,6.34-2.92,6.34l-4.29.09,1,1.61-1.24,1.18.14,1.18-1.37.85-.22.8,2.57,1s.44-.24.4.33c0,.09,0,.19,0,.28-.22,6.69-4.86,8.89-4.86,8.89l-.09,3.21c-6.11,2.63-2.56,7.38-1.75,8.33h-6l.23-2.41s-9.38.35-10.27-16.47L1167,399s-1.59-1.42-1.06-2.83-.3-1.95-.77-1.83a21.71,21.71,0,0,1-3.31-.35s.92-7.48-5.43-5.9c-.47.12.71-2.72-.35-3.19s-2.72-2.36-2.72-3.78a3.05,3.05,0,0,0-.94-2.24c-.24-.35.35-1.77.35-1.77l-.59-.83.12-2.6s.94-1.3,1.65-1.3-2.65-4.74-8.62-4.95h-.83c-6,.21-9.29,4.95-8.62,4.95s1.65,1.3,1.65,1.3l.12,2.6-.59.83s.59,1.42.35,1.77a3,3,0,0,0-.94,2.24c0,1.41-1.65,3.3-2.71,3.78s.12,3.3-.36,3.19c-6.35-1.58-5.43,5.9-5.43,5.9a21.47,21.47,0,0,1-3.3.35c-.47-.11-1.3.41-.77,1.83s-1.06,2.83-1.06,2.83l1.24,2.13c-.89,16.82-10.27,16.46-10.27,16.46L1114,420h-56.57V398.91h4.38v-12H979v12h4.11v8.14H929.92l-.5-36.84s-1.84-3.74-3.17-5-.28-14.53-.28-14.53l.79-1.72a4.11,4.11,0,0,1-1.23-2.49c-.06-1.41.7-4-.48-5.06s-.68-2.8-1.29-3.9a2.84,2.84,0,0,0-1.76-1.34s-2.5,1.51-2.46,2.35-.21,2-.18,2.83a8,8,0,0,1-.48,2.28l.12,2.82a7.39,7.39,0,0,1-.78,2,2.18,2.18,0,0,0,.08,2l.87.25,0,6.56s-4.37-13.59-8.22-14.07l1-1.94-1.74-.78-.24-11.63,1.43-1.53-2.39-1.18s-.34-3.17-2-3.31a32.53,32.53,0,0,1-3.44-.5l-1.9.29-.68-1-.34-14.17,1.87-1.33a12.4,12.4,0,0,1-2-2.25c-.24-.62.64-5.53,0-5.71s.34-2.13-.76-2.94a4.35,4.35,0,0,1-1.38-2.49l-2.13.08s-1.62,2.18-1.58,3.24a28.37,28.37,0,0,1-.68,4.26,11.17,11.17,0,0,0,.3,2.32c.24.62-1.21,1.73-1.4,2.38s1.16,2.49,1.16,2.49l-.31,8.48-1.78-2.05s2.41-3.68.65-5.1-2.58-.53-2.58-.53l-1.17-2.71-2.15-.34.39-11.87,1.83-2.19-5.23-3s.25-4.67-5.26-3.61c0,0-3.81-4.72-4.17-8.52s-.2-10.78-.2-10.78l1.62-2.39-2.22-2-1.07-.17,1.64-1.75-.47-1-3-.74v.24l-2.71.68-.46,1,1.65,1.75-1.07.18-2.19,2,1.63,2.39s.21,7-.13,10.78-4.1,8.55-4.1,8.55c-5.51-1-5.24,3.64-5.24,3.64l-5.21,3,1.84,2.17.48,11.87-2.14.36-1.15,2.71s-.83-.87-2.57.56.69,5.1.69,5.1L848,316.27l-.37-8.47s1.33-1.86,1.14-2.5-1.65-1.74-1.41-2.37a11.35,11.35,0,0,0,.28-2.32,28.79,28.79,0,0,1-.72-4.26c0-1.05-1.61-3.21-1.61-3.21l-2.13-.07a4.35,4.35,0,0,1-1.35,2.5c-1.09.81-.09,2.75-.73,2.94s.26,5.09,0,5.71a12.39,12.39,0,0,1-2,2.27L841,307.8,840.8,322l-.67,1-1.92-.27a34.06,34.06,0,0,1-3.43.53c-1.71.16-2,3.32-2,3.32l-2.39,1.19,1.45,1.52-.15,11.64-1.73.79,1,1.94c-3.86.51-8.11,14.13-8.11,14.13l-.09-6.56.87-.25a2.16,2.16,0,0,0,.05-2,7.34,7.34,0,0,1-.78-2l.09-2.83a7.92,7.92,0,0,1-.5-2.26c0-.85-.22-2-.2-2.83s-2.49-2.33-2.49-2.33a2.86,2.86,0,0,0-1.75,1.35c-.6,1.11-.09,2.82-1.26,3.91s-.4,3.65-.44,5.06a4.07,4.07,0,0,1-1.22,2.51l.81,1.71s1.15,13.29-.17,14.52a17.43,17.43,0,0,0-2.51,3.76v-5l0-4.11s5.32-8.55-3.66-15l-1.23-2.25-.61-1.12s-6.82-4.16-4.31-8.62,0-1.12,0-1.12l1.88-3.72s2.18-.74,1.88-3.72-2.77-5.63-2.77-7.12,3.13-5.58,3.13-5.58l.32-1.12-4.66-.77-.92-1.88s3.46-8.57-4.91-13.11c0,0-3.41-1.14-4.35,1.46,0,0-4.62-9-9.27-11.64l-1.24-1.13s3.74-1.84,2.81-3.71-1.21-6-3.39-6-.62-.38-.62-.38l2.19-3.35-1.86-1.51-.57-9.35,3.43-1.84,1.88-4.1-7.14-.8-17-17.31-1.75-8.63v-.39l.85-.33,1.26-3.73-2.1-.79v-.54l-.72.27-1.22-.46V222l-2.1.78,1.24,3.73.86.34v.41l-1.79,8.59-17.09,17.19-7.15.75,1.86,4.11,3.42,1.87-.62,9.34-1.86,1.5,2.17,3.37s1.56.37-.62.37-2.49,4.11-3.42,6,2.8,3.74,2.8,3.74l-1.25,1.13c-4.66,2.61-9.32,11.58-9.32,11.58-.93-2.62-4.35-1.49-4.35-1.49-8.39,4.48-5,13.08-5,13.08l-.94,1.87-4.66.74.31,1.13s3.11,4.11,3.11,5.6-2.49,4.11-2.8,7.11,1.86,3.73,1.86,3.73l1.87,3.74s-2.48-3.36,0,1.13-4.35,8.59-4.35,8.59l-.42.75-1.78-24.38-.94-6s-1.15-6.26-1.62-8.63a45.26,45.26,0,0,0-2-6.25,14.22,14.22,0,0,1-2.42-4.08,25.42,25.42,0,0,1-.28-5.4,16.52,16.52,0,0,0-3.26-1.25c-.64,0-.61,3.25-.61,3.25l.27,4.32-1.49,2.4-.57,6.49-13.65-1.35,0-3.46,1.49-2-4.89-11.19-1.52-.42-.39,3-1.72.67-3.92-1.9-42.39-54.86a14.47,14.47,0,0,0-1.13-3.67,2.11,2.11,0,0,0-.59-.76l-.2-12.6,4,1,.4-1.59L626.73,213l-.09-5.83-1.64,0,.08,5.39-4.21-1.05-.4,1.59,4.64,1.16.2,12.56a3.39,3.39,0,0,0-.8.18l-.83,3-148.38,43a10.38,10.38,0,0,1-1.64,1.39,50.35,50.35,0,0,1-4.78,2.89l-.17-3.58-2.29-2.47L465.68,243l2.91-2.71c-4.61-4.28-8.77-27.57-8.77-27.57L448.74,115l-.51,2.14s-7.83,81.51-9,95.75-8.15,28.71-8.15,28.71c1.73.06,3.8,2.73,3.8,2.73s.92,29.46,0,29.43-2.42,1.22-2.42,1.22l0,4.27-.08,0a15.7,15.7,0,0,1-1.76-1.45L368,265.59l-.67-1.08s-3-13.8-3.66-16.82-2-.63-2-.63-1.16-6.9-1.62-9.06-2.17-.84-2.17-.84l-1.55,14.72a33.09,33.09,0,0,0-.92-4.75c-.45-1.08-1.31-1.28-1.52,0s-.55,7.8-.55,7.8l-1,6.93-3.47-.39,0-2.81s-.69-3.24.39-3.47a2.25,2.25,0,0,0,1.5-1.31c-2.4-2.14-7.58-.78-8.87.32s1.53,1.06,1.53,1.06l.29,6.05-19.5-2.8-2-5.6L322,246l.42-1.52.18-2.81a15.42,15.42,0,0,0-2-3.22c-.88-.85-3.89.48-3.89.48l.06,4.76L315,245l1.53,1.5.1,8-15,50.79L301,303.8l-.92-4.75-.42-16.43-1.2-28.31,1.28-1.53-.82-14.91-2.39-.83-.69-3.88-3-.61L292,201.19l-1.38-43.46-1.8-5.6.11-9.73.35-7.14L288.07,124l-2.51-29.38L282,69.17l.37-5.41L286.66,60l-.18-14.7-2.37.24-7.17-2.07-.72-24.65-3-1.48-3.24.26-4.53.92-3.9-.39-3,.68-4.54.27-.69-3-3.69-1.25-2.38.46-.53-8.21-5.41-.37-4.1,1.14L237.43,31l-8.67-1.84-.26-21.4-7.79-.34-.39,3.47-7.39-2.94-.08-6.7L206.57,0l-6.68,1.16-.09,10.38-5.41-.15-3.88,1.34.33,9.51-3.24,0-.51-6.48s-5.86-2.1-6.73-2.08a17.17,17.17,0,0,0-3,.68l-1.46,4.34-.59,4.55-3-.18s-.24-1.94-.25-3-4.11-.16-4.11-.16l.1,8.65L162.14,28l-3.65,2.42L158.56,54l-9,6.16-.07,12.11,4.77,1.46.93,5.18-1.69,3.7-1.25,4.56.14,11.67-1.45,5.64L149.79,117l-.75,9.74-1,8,1.13,3.88.38,13.83-2.78,2.63-.23,16.65-.08,29.41,0,32.87L145,237.33l-.8,6.07-1.94,0-1.71,1.53,1.07,35.88L139,284.11l.84,15.78-1.53,17.53v18l-2.16.24-.12-9.73-.88-1.72-2.81-.19-.23-37.41,1.07-.66.2-1.08-5.85-.8-2.59,0-19.89.66-.28-5-.14-11.89-.87-.64-3.9-.82-.1-8.65.86-.66.2-1.52-7.15-1-4.09,2.21.66.86.32,8.43-19,.88.12-8,1.29-.45v-1.3l-8-1-4.09,1.56.47,39.35-6.7.29-.2,1.3.88,1.07.34,10.6-8.86.54,1.1,1.94.11,8.65-5.62.28-.31-8.21,1.73.19-.23-1.51-.67-1.5-2.84-2.35-.7-4.53,1.27-1.52s-.51-6.49-.53-7.78-4.11-.17-5,.27-.54,8.44-.54,8.44l-.13,6.92-3,1.12.68,39.13L23,351l1,9.07-9.29.76.68,2.81L15.75,374l-3.45.26-.44-.86.28-12.33-4.62-.52-.16-13-5.19.06-.42,13.27-3.15,2.35-.48,55.95,2.89.54L-.39,530.65h-17v61h1983.5v-61Z"/><path class="cls-2" d="M515.58,511.11V484.73a8.51,8.51,0,0,1,8.75-6.48,7.65,7.65,0,0,1,8.11,6.71l.21,26.15Z"/><path class="cls-2" d="M772.12,311.2a11.74,11.74,0,1,1-11.74-11.74,11.74,11.74,0,0,1,11.74,11.74"/><rect class="cls-2" x="644" y="398.19" width="11.66" height="9.78"/><rect class="cls-2" x="644.07" y="409.94" width="4.96" height="20.63"/><rect class="cls-2" x="650.8" y="409.94" width="4.96" height="20.63"/><rect class="cls-2" x="337.59" y="364.08" width="4.96" height="15.58"/><rect class="cls-2" x="344.32" y="364.08" width="4.96" height="15.58"/><rect class="cls-2" x="427.53" y="392.16" width="4.96" height="32.24"/><rect class="cls-2" x="434.26" y="392.16" width="4.96" height="32.24"/><rect class="cls-2" x="856.25" y="399.95" width="7.69" height="7.7"/><rect class="cls-2" x="846.75" y="400.08" width="7.7" height="7.7"/><rect class="cls-2" x="846.72" y="409.2" width="7.7" height="7.7"/><rect class="cls-2" x="856.18" y="409.2" width="7.7" height="7.7"/><rect class="cls-2" x="846.59" y="418.24" width="7.7" height="7.7"/><rect class="cls-2" x="856.04" y="418.24" width="7.69" height="7.7"/><path class="cls-2" d="M226.56,252.06l-.68-151.3s-.68-15.61-8.82-15.61,0-1.36,0-1.36-7.46-1.36-6.78,14.25L213,216.1l.68,34.6Z"/><path class="cls-2" d="M262.52,257.7l-.68-151.3s-.68-15.61-8.82-15.61,0-1.36,0-1.36-7.46-1.36-6.78,14.25L249,221.73l.68,34.6Z"/><rect class="cls-2" x="73.46" y="344.31" width="13.53" height="17.39"/><rect class="cls-2" x="98.58" y="399.37" width="13.52" height="17.39"/><rect class="cls-2" x="989.62" y="405.99" width="17" height="16.99"/><rect class="cls-2" x="1011.22" y="406.34" width="17" height="17"/><rect class="cls-2" x="1032.82" y="406.34" width="17" height="17"/><rect class="cls-2" x="1139.4" y="419.09" width="9.92" height="20.54"/><rect class="cls-2" x="1129.84" y="419.09" width="6.37" height="12.39"/><rect class="cls-2" x="1077.13" y="470.97" width="5.05" height="5.05"/><rect class="cls-2" x="1083.32" y="470.97" width="5.05" height="5.05"/><rect class="cls-2" x="1077.08" y="477.03" width="5.05" height="5.05"/><rect class="cls-2" x="1083.28" y="477.03" width="5.05" height="5.05"/><rect class="cls-2" x="1076.99" y="482.96" width="5.05" height="5.05"/><rect class="cls-2" x="1083.19" y="482.96" width="5.05" height="5.05"/><rect class="cls-2" x="1152.51" y="419.45" width="6.37" height="12.39"/><rect class="cls-2" x="1249.18" y="430.43" width="4.96" height="15.58"/><rect class="cls-2" x="1255.9" y="430.43" width="4.96" height="15.58"/><rect class="cls-2" x="1350.45" y="399.26" width="4.96" height="13.46"/><rect class="cls-2" x="1357.18" y="399.26" width="4.96" height="13.46"/><rect class="cls-2" x="1285.23" y="466.37" width="11.66" height="4.6"/><rect class="cls-2" x="1285.29" y="472.56" width="4.96" height="17"/><rect class="cls-2" x="1292.02" y="472.56" width="4.96" height="17"/><rect class="cls-2" x="962.54" y="441.61" width="11.66" height="9.78"/><rect class="cls-2" x="962.61" y="453.35" width="4.96" height="20.63"/><rect class="cls-2" x="969.33" y="453.35" width="4.96" height="20.63"/><path class="cls-2" d="M1149,408.11a3.9,3.9,0,1,1-3.89-3.89,3.9,3.9,0,0,1,3.89,3.89"/><rect class="cls-2" x="1207.75" y="380.5" width="7.79" height="7.96"/><path class="cls-2" d="M1215.54,380.67a3.9,3.9,0,1,1-3.9-3.9,3.89,3.89,0,0,1,3.9,3.9"/><path class="cls-2" d="M1480.49,331.71V308.36s1.23-5.74,8.4-5.74,7.78,5.94,7.78,5.94l.21,23.15Z"/><path class="cls-2" d="M1462,375.76V350.43a8.17,8.17,0,0,1,8.4-6.22,7.35,7.35,0,0,1,7.79,6.44l.21,25.11Z"/><path class="cls-2" d="M1427.21,456.49V411.75s1.34-11,9.14-11,8.47,11.38,8.47,11.38l.22,44.35Z"/><path class="cls-2" d="M1461,456.7V412s1.34-11,9.14-11,8.46,11.38,8.46,11.38l.22,44.35Z"/><path class="cls-2" d="M1495.85,456.7V412s1.34-11,9.14-11,8.47,11.38,8.47,11.38l.22,44.35Z"/><path class="cls-2" d="M1530.89,456.7V412s1.34-11,9.14-11,8.47,11.38,8.47,11.38l.22,44.35Z"/><path class="cls-2" d="M1497.29,377.2V351.87a8.17,8.17,0,0,1,8.4-6.22,7.35,7.35,0,0,1,7.79,6.44l.2,25.11Z"/><rect class="cls-2" x="1640.44" y="320.3" width="6.01" height="8.74"/><rect class="cls-2" x="1665.16" y="371.22" width="6.01" height="18.58"/><rect class="cls-2" x="1672.74" y="371.22" width="6.01" height="18.58"/><rect class="cls-2" x="1725.61" y="372.14" width="6.01" height="18.58"/><rect class="cls-2" x="1733.18" y="372.14" width="6.01" height="18.58"/><rect class="cls-2" x="1799.16" y="435.46" width="6.01" height="13.25"/><rect class="cls-2" x="1806.74" y="435.46" width="6.01" height="13.25"/><rect class="cls-2" x="1884.33" y="380.13" width="4.85" height="8.74"/><rect class="cls-2" x="1869.78" y="402.06" width="4.85" height="8.74"/><rect class="cls-2" x="1882.49" y="402.06" width="4.85" height="8.74"/><rect class="cls-2" x="1888.84" y="402.06" width="4.85" height="8.74"/><rect class="cls-2" x="1901.33" y="402.06" width="4.85" height="8.74"/><rect class="cls-2" x="1865.07" y="425.62" width="4.85" height="11"/><rect class="cls-2" x="1871.83" y="425.62" width="4.85" height="11"/><rect class="cls-2" x="1902.57" y="425.83" width="4.85" height="10.99"/><rect class="cls-2" x="1909.53" y="425.83" width="4.85" height="10.99"/><rect class="cls-2" x="1758.18" y="324.4" width="6.01" height="8.74"/><rect class="cls-2" x="1694.53" y="322.38" width="6.01" height="18.02"/><rect class="cls-2" x="1702.31" y="322.38" width="6.01" height="18.02"/><path class="cls-2" d="M1703.82,311.43a2.77,2.77,0,1,1-2.77-2.77,2.77,2.77,0,0,1,2.77,2.77"/><path class="cls-2" d="M1592.08,423.57l-.13-13s.82-1.5,1.64-1.5,7.24-.14,7.24-.14,1.64,1.09,1.64,1.77v13Z"/></svg>