<svg id="Layer_1" data-name="Layer 1" xmlns="http://www.w3.org/2000/svg" viewBox="0 0 198.89 176.39"><defs><style>.cls-1{fill:#fd4f57;}.cls-2{fill:#181716;}</style></defs><title>orm-logo</title><path class="cls-1" d="M87.38,7.07a10.25,10.25,0,0,1,5.38,1.51,10.51,10.51,0,0,1,3.93,4.22,13,13,0,0,1,1.42,6.1A13,13,0,0,1,96.68,25a10.67,10.67,0,0,1-3.92,4.26,10,10,0,0,1-5.29,1.53,9.5,9.5,0,0,1-5.13-1.5A10.77,10.77,0,0,1,78.5,25,13.16,13.16,0,0,1,77,18.85a12.86,12.86,0,0,1,1.4-6A10.69,10.69,0,0,1,82.3,8.59,9.44,9.44,0,0,1,87.38,7.07Zm.25,1.18a5.78,5.78,0,0,0-4.85,2.49q-1.86,2.49-1.86,8.1,0,6.09,1.9,8.42A6,6,0,0,0,91,28.54a7.09,7.09,0,0,0,2.37-3.36,17.19,17.19,0,0,0,.88-6,19.43,19.43,0,0,0-.83-6.38A6.93,6.93,0,0,0,91,9.35,5.72,5.72,0,0,0,87.62,8.25Z"/><path class="cls-1" d="M101,7.54h11.2A8.64,8.64,0,0,1,118,9.26a5.65,5.65,0,0,1,2,4.5A5.08,5.08,0,0,1,118.15,18a9.71,9.71,0,0,1-6.24,2h-4v7.75a1.25,1.25,0,0,0,.32,1,1.71,1.71,0,0,0,1.15.37h2.58v1.15H101V29.09h2.28a1.52,1.52,0,0,0,1-.27.91.91,0,0,0,.32-.73V10a1.17,1.17,0,0,0-.4-1,2.63,2.63,0,0,0-1.51-.31H101Zm6.86,11.34h3.08a6,6,0,0,0,4.22-1.22,5.34,5.34,0,0,0,1.29-4,6.33,6.33,0,0,0-.58-3,3.57,3.57,0,0,0-1.71-1.56,9.75,9.75,0,0,0-3.7-.51,4.42,4.42,0,0,0-2.15.32,1.28,1.28,0,0,0-.45,1.12Z"/><path class="cls-1" d="M120,26.89a1.75,1.75,0,0,1,1.3.55,1.83,1.83,0,0,1,.54,1.32,1.86,1.86,0,0,1-.54,1.35,1.84,1.84,0,0,1-2.63,0,1.91,1.91,0,0,1,0-2.67A1.8,1.8,0,0,1,120,26.89Z"/><path class="cls-1" d="M40.05,42.9H51.78a8.09,8.09,0,0,1,5.29,1.55,5,5,0,0,1,1.88,4.07,4.89,4.89,0,0,1-.74,2.68A5.21,5.21,0,0,1,56,53.06a13.59,13.59,0,0,1-4.41,1,10.69,10.69,0,0,1,3,1.17A4.28,4.28,0,0,1,56,56.73a17.43,17.43,0,0,1,1.15,3.72,8.52,8.52,0,0,0,1,2.75,1.09,1.09,0,0,0,.86.57q.47,0,.88-.7a5.91,5.91,0,0,0,.5-2.46h1q-.29,5.22-3.85,5.22a3.33,3.33,0,0,1-1.94-.57,3.42,3.42,0,0,1-1.24-1.67,24.32,24.32,0,0,1-.72-4.34,8,8,0,0,0-.73-2.9A3.55,3.55,0,0,0,51.36,55a5.67,5.67,0,0,0-2.53-.52H47v8.92a1,1,0,0,0,.29.8,1.85,1.85,0,0,0,1.15.29h2.18v1.15H40.05V64.44h2.22a1.66,1.66,0,0,0,1.08-.29,1,1,0,0,0,.35-.8V45.22a1.07,1.07,0,0,0-.35-.87A1.67,1.67,0,0,0,42.28,44H40.05ZM47,53.33h2.69a7.55,7.55,0,0,0,4.23-1,4,4,0,0,0,1.53-3.62,5.88,5.88,0,0,0-.58-2.83,3.05,3.05,0,0,0-1.51-1.42A11.46,11.46,0,0,0,49.64,44a5.75,5.75,0,0,0-2.24.25.92.92,0,0,0-.43.87Z"/><path class="cls-1" d="M64,42.9H82l.43,7.66h-1a10.09,10.09,0,0,0-1.94-5.06A4.48,4.48,0,0,0,76,44H71.55a1.07,1.07,0,0,0-.81.29,1.26,1.26,0,0,0-.28.89v8.09h1.94a3.19,3.19,0,0,0,2.53-1.12,5.43,5.43,0,0,0,1-3.44H77V59.27H76a5.92,5.92,0,0,0-1.06-3.74,3.39,3.39,0,0,0-2.69-1.13H70.47v9a.9.9,0,0,0,.33.75,1.78,1.78,0,0,0,1.1.26H75.4q5.72,0,6.59-7.3h1.1l-.38,8.46H64V64.44h1.55a2,2,0,0,0,1.27-.31,1.13,1.13,0,0,0,.37-.91v-18a1.14,1.14,0,0,0-.32-.89,1.48,1.48,0,0,0-1-.29H64Z"/><path class="cls-1" d="M102.83,44.66l1.06-2.19h1l.4,9.13h-1a14.74,14.74,0,0,0-2.55-5.68,5.74,5.74,0,0,0-4.54-2.29,5.46,5.46,0,0,0-4.65,2.55q-1.79,2.55-1.79,8.62,0,5.11,2.06,7.8a5.84,5.84,0,0,0,4.91,2.27,6.48,6.48,0,0,0,4.63-1.77,9.09,9.09,0,0,0,2.44-5.35h1.09A9.83,9.83,0,0,1,103,64a8.1,8.1,0,0,1-5.8,2.18A9.91,9.91,0,0,1,92,64.73a10.27,10.27,0,0,1-3.79-4.1,12.34,12.34,0,0,1-1.42-5.87,14.22,14.22,0,0,1,1.47-6.37A11,11,0,0,1,92,43.92,8.83,8.83,0,0,1,97,42.42a8.23,8.23,0,0,1,2.85.51A12,12,0,0,1,102.83,44.66Z"/><path class="cls-1" d="M108.81,42.9h9.7V44h-1.78a1.63,1.63,0,0,0-1.22.33,2.84,2.84,0,0,0-.28,1.6v7H125.6V46a3,3,0,0,0-.27-1.63,1.76,1.76,0,0,0-1.27-.31h-1.66V42.9H132V44h-1.76a1.86,1.86,0,0,0-.93.17,1.19,1.19,0,0,0-.44.58,5.77,5.77,0,0,0-.09,1.37V62.49a2.91,2.91,0,0,0,.2,1.43,1.74,1.74,0,0,0,1.46.52H132v1.15h-9.64V64.44h1.66a1.48,1.48,0,0,0,1.34-.54,3.46,3.46,0,0,0,.2-1.53V54.48H115.23v8a3.18,3.18,0,0,0,.18,1.44,1.55,1.55,0,0,0,1.32.51h1.78v1.15h-9.7V64.44h1.86a1.37,1.37,0,0,0,.78-.2,1.16,1.16,0,0,0,.43-.57,6.26,6.26,0,0,0,.08-1.3V46a2.84,2.84,0,0,0-.28-1.6,1.66,1.66,0,0,0-1.24-.33h-1.63Z"/><path class="cls-1" d="M134.9,42.9h18.43l.45,8.58h-1.06q-1-7.57-5.47-7.57a1.83,1.83,0,0,0-1.22.31,1.33,1.33,0,0,0-.33,1V63.37a1,1,0,0,0,.32.81,1.69,1.69,0,0,0,1.06.26h2.29v1.15H138.81V64.44h2.61a1.12,1.12,0,0,0,.8-.26.91.91,0,0,0,.28-.69V45.09a1.09,1.09,0,0,0-.35-.88,1.75,1.75,0,0,0-1.14-.3A4.42,4.42,0,0,0,137.3,46a12.85,12.85,0,0,0-1.76,5.46h-1.12Z"/><path class="cls-1" d="M157,62.25a1.75,1.75,0,0,1,1.3.55,1.83,1.83,0,0,1,.54,1.32,1.86,1.86,0,0,1-.54,1.35,1.84,1.84,0,0,1-2.63,0,1.91,1.91,0,0,1,0-2.67A1.8,1.8,0,0,1,157,62.25Z"/><path class="cls-1" d="M0,78.25H7.56l6.78,17.92,6.24-17.92h7.73V79.4H26.42a2.19,2.19,0,0,0-1.34.29,1.27,1.27,0,0,0-.34,1v18a1,1,0,0,0,.41.83,2.59,2.59,0,0,0,1.43.29h1.73v1.15H17.92V99.8h1.94a2,2,0,0,0,1.23-.31,1,1,0,0,0,.4-.81V79.4L14,100.95H13L4.88,79.5V96a5.07,5.07,0,0,0,.37,2.2A2.62,2.62,0,0,0,6.3,99.32a5.46,5.46,0,0,0,2.26.48v1.15H0V99.8a4.43,4.43,0,0,0,2.85-.91,3.85,3.85,0,0,0,.75-2.72V80.53a1,1,0,0,0-.35-.85,2.31,2.31,0,0,0-1.32-.27H0Z"/><path class="cls-1" d="M31.2,78.25h18l.43,7.66h-1a10.1,10.1,0,0,0-1.94-5.06,4.48,4.48,0,0,0-3.46-1.44H38.75a1.07,1.07,0,0,0-.81.29,1.26,1.26,0,0,0-.28.89v8.09H39.6a3.19,3.19,0,0,0,2.53-1.12,5.42,5.42,0,0,0,1-3.44h1.06V94.63H43.18a5.92,5.92,0,0,0-1.06-3.74,3.39,3.39,0,0,0-2.69-1.13H37.66v9a.9.9,0,0,0,.33.75,1.78,1.78,0,0,0,1.1.26h3.51q5.72,0,6.59-7.3h1.1l-.38,8.46H31.2V99.8h1.55A2,2,0,0,0,34,99.48a1.14,1.14,0,0,0,.37-.91v-18a1.14,1.14,0,0,0-.32-.89,1.48,1.48,0,0,0-1-.29H31.2Z"/><path class="cls-1" d="M70,80l1.06-2.19h1l.4,9.13h-1a14.75,14.75,0,0,0-2.55-5.68A5.74,5.74,0,0,0,64.33,79a5.46,5.46,0,0,0-4.65,2.55q-1.8,2.55-1.79,8.62,0,5.11,2.06,7.8a5.84,5.84,0,0,0,4.91,2.27,6.48,6.48,0,0,0,4.63-1.77,9.1,9.1,0,0,0,2.44-5.35H73a9.84,9.84,0,0,1-2.78,6.23,8.1,8.1,0,0,1-5.8,2.18,9.91,9.91,0,0,1-5.21-1.43A10.27,10.27,0,0,1,55.44,96,12.34,12.34,0,0,1,54,90.12a14.23,14.23,0,0,1,1.47-6.37,11,11,0,0,1,3.75-4.47,8.83,8.83,0,0,1,4.93-1.5,8.23,8.23,0,0,1,2.85.51A12,12,0,0,1,70,80Z"/><path class="cls-1" d="M76,78.25h9.7V79.4H83.92a1.63,1.63,0,0,0-1.22.33,2.84,2.84,0,0,0-.28,1.6v7H92.79v-7a3,3,0,0,0-.27-1.63,1.77,1.77,0,0,0-1.27-.31H89.6V78.25h9.64V79.4H97.47a1.86,1.86,0,0,0-.93.17,1.19,1.19,0,0,0-.44.58A5.77,5.77,0,0,0,96,81.52V97.85a2.91,2.91,0,0,0,.2,1.43,1.74,1.74,0,0,0,1.46.52h1.57v1.15H89.6V99.8h1.66a1.48,1.48,0,0,0,1.34-.54,3.45,3.45,0,0,0,.2-1.53V89.84H82.42v8a3.19,3.19,0,0,0,.18,1.44,1.56,1.56,0,0,0,1.32.51H85.7v1.15H76V99.8h1.86a1.36,1.36,0,0,0,.78-.2,1.16,1.16,0,0,0,.43-.57,6.27,6.27,0,0,0,.08-1.3V81.34a2.84,2.84,0,0,0-.28-1.6,1.65,1.65,0,0,0-1.24-.33H76Z"/><path class="cls-1" d="M102.77,78.25h18l.43,7.66h-1a10.09,10.09,0,0,0-1.94-5.06,4.48,4.48,0,0,0-3.46-1.44h-4.44a1.07,1.07,0,0,0-.81.29,1.26,1.26,0,0,0-.28.89v8.09h1.94a3.2,3.2,0,0,0,2.53-1.12,5.43,5.43,0,0,0,1-3.44h1.06V94.63h-1.06a5.92,5.92,0,0,0-1.06-3.74A3.38,3.38,0,0,0,111,89.76h-1.78v9a.9.9,0,0,0,.33.75,1.79,1.79,0,0,0,1.1.26h3.51q5.72,0,6.59-7.3h1.1l-.38,8.46H102.77V99.8h1.55a2,2,0,0,0,1.27-.31,1.14,1.14,0,0,0,.37-.91v-18a1.14,1.14,0,0,0-.32-.89,1.48,1.48,0,0,0-1-.29h-1.86Z"/><path class="cls-1" d="M124.39,78.25h10.53V79.4H132.4a1.13,1.13,0,0,0-.88.31,1.45,1.45,0,0,0-.28,1V98.62a1.06,1.06,0,0,0,.36.91,2.64,2.64,0,0,0,1.45.27h3.19a5.49,5.49,0,0,0,4.16-1.7q1.62-1.7,2.35-5.88h1.07l-.52,8.73H124.39V99.8h1.86a1.94,1.94,0,0,0,1.34-.36,1.53,1.53,0,0,0,.38-1.16V80.56a1.1,1.1,0,0,0-.32-.86,1.38,1.38,0,0,0-1-.29h-2.3Z"/><path class="cls-1" d="M146.43,78.25h18l.43,7.66h-1a10.09,10.09,0,0,0-1.94-5.06,4.48,4.48,0,0,0-3.46-1.44H154a1.07,1.07,0,0,0-.81.29,1.26,1.26,0,0,0-.28.89v8.09h1.94a3.2,3.2,0,0,0,2.53-1.12,5.43,5.43,0,0,0,1-3.44h1.06V94.63h-1.06a5.92,5.92,0,0,0-1.06-3.74,3.38,3.38,0,0,0-2.69-1.13h-1.78v9a.9.9,0,0,0,.33.75,1.79,1.79,0,0,0,1.1.26h3.51q5.72,0,6.59-7.3h1.1l-.38,8.46H146.43V99.8H148a2,2,0,0,0,1.27-.31,1.14,1.14,0,0,0,.37-.91v-18a1.14,1.14,0,0,0-.32-.89,1.48,1.48,0,0,0-1-.29h-1.86Z"/><path class="cls-1" d="M168.35,78.25h5.42l13.69,17.83V83.18a4.06,4.06,0,0,0-.89-2.88,3.28,3.28,0,0,0-2.42-.89V78.25h7.95V79.4a3.83,3.83,0,0,0-1.82.34,2.78,2.78,0,0,0-1,1.23,4.29,4.29,0,0,0-.45,1.95v18h-1.44L173.17,82.39v13.7a3.71,3.71,0,0,0,.94,2.77,4.11,4.11,0,0,0,2.9.94v1.15h-8.65V99.8a3.58,3.58,0,0,0,2.58-1.07,3.44,3.44,0,0,0,1-2.46V80.91l-.27-.3a4.92,4.92,0,0,0-1.09-1,2.64,2.64,0,0,0-1.15-.21h-1Z"/><path class="cls-1" d="M197.05,97.6a1.75,1.75,0,0,1,1.3.55,1.83,1.83,0,0,1,.54,1.32,1.86,1.86,0,0,1-.54,1.35,1.84,1.84,0,0,1-2.63,0,1.91,1.91,0,0,1,0-2.67A1.8,1.8,0,0,1,197.05,97.6Z"/><path class="cls-2" d="M42.41,121.81,43,121h.45l.06,3.27h-.58a4.47,4.47,0,0,0-1.27-2.11,2.75,2.75,0,0,0-1.82-.7,2,2,0,0,0-1.39.46,1.42,1.42,0,0,0-.53,1.11,1.25,1.25,0,0,0,.21.7,1.64,1.64,0,0,0,.68.55,7.88,7.88,0,0,0,1.65.47,11.07,11.07,0,0,1,1.9.52,2.88,2.88,0,0,1,1.25,1A2.58,2.58,0,0,1,44,127.7a2.62,2.62,0,0,1-.9,2.09,4,4,0,0,1-2.69.94,4.09,4.09,0,0,1-2.7-1l-.75.93h-.47v-3.51h.56q.84,3,3.4,3a2.48,2.48,0,0,0,1.63-.48,1.51,1.51,0,0,0,.58-1.21,1.38,1.38,0,0,0-.26-.85,1.76,1.76,0,0,0-.79-.55,12.83,12.83,0,0,0-1.46-.36A9.09,9.09,0,0,1,38,126a2.49,2.49,0,0,1-1-.9,2.53,2.53,0,0,1-.31-1.3,2.76,2.76,0,0,1,.87-2.11,3.26,3.26,0,0,1,2.33-.82A3.93,3.93,0,0,1,42.41,121.81Z"/><path class="cls-2" d="M46.1,121.08h8.27l.21,3.6H54a6.69,6.69,0,0,0-.53-1.8,2.28,2.28,0,0,0-.75-.92,1.65,1.65,0,0,0-.92-.27.63.63,0,0,0-.42.12.43.43,0,0,0-.13.34v7.32a.48.48,0,0,0,.13.35.43.43,0,0,0,.32.13h1.07v.6H47.72v-.6h1a.5.5,0,0,0,.36-.13.46.46,0,0,0,.13-.35v-7.28a.48.48,0,0,0-.14-.38.64.64,0,0,0-.43-.12q-1.63,0-2.21,3H45.9Z"/><path class="cls-2" d="M60.09,120.84l3.55,8.49a1.14,1.14,0,0,0,.33.49.8.8,0,0,0,.47.13h.35v.6H60.35v-.6h.42a1.47,1.47,0,0,0,.68-.11.33.33,0,0,0,.19-.29.88.88,0,0,0-.08-.33l-.73-1.75H57.28l-.34.8a2.18,2.18,0,0,0-.21.74.84.84,0,0,0,.31.67,1.26,1.26,0,0,0,.84.26h.3v.6h-3.6v-.6h.2a.93.93,0,0,0,.61-.22,2,2,0,0,0,.58-.79l3.39-8.1Zm-1,2.4-1.52,3.61h3Z"/><path class="cls-2" d="M66,121.08h5.09a4.9,4.9,0,0,1,2.44.59,4.17,4.17,0,0,1,1.64,1.68,5,5,0,0,1,.6,2.45,5.26,5.26,0,0,1-.54,2.46,4.06,4.06,0,0,1-1.62,1.67,4.59,4.59,0,0,1-2.32.62H66v-.6h.79a.57.57,0,0,0,.43-.16.62.62,0,0,0,.15-.44v-7.13a.52.52,0,0,0-.15-.42.8.8,0,0,0-.52-.13H66Zm4.65,8.87a2.78,2.78,0,0,0,1.55-.44,2.49,2.49,0,0,0,1-1.21,6.93,6.93,0,0,0,.3-2.37,7.36,7.36,0,0,0-.35-2.59,2.55,2.55,0,0,0-1-1.28,3.39,3.39,0,0,0-1.78-.38,1.8,1.8,0,0,0-.81.11.44.44,0,0,0-.16.4v7.16a.66.66,0,0,0,.13.46.55.55,0,0,0,.42.14Z"/><path class="cls-2" d="M83.67,121.81l.6-.84h.45l.06,3.27H84.2a4.46,4.46,0,0,0-1.27-2.11,2.75,2.75,0,0,0-1.82-.7,2,2,0,0,0-1.39.46,1.42,1.42,0,0,0-.53,1.11,1.25,1.25,0,0,0,.21.7,1.64,1.64,0,0,0,.68.55,7.87,7.87,0,0,0,1.64.47,11.08,11.08,0,0,1,1.9.52,2.89,2.89,0,0,1,1.25,1,2.58,2.58,0,0,1,.42,1.49,2.62,2.62,0,0,1-.9,2.09,4,4,0,0,1-2.69.94,4.09,4.09,0,0,1-2.7-1l-.75.93h-.47v-3.51h.56q.84,3,3.4,3a2.48,2.48,0,0,0,1.63-.48,1.5,1.5,0,0,0,.58-1.21,1.38,1.38,0,0,0-.26-.85,1.77,1.77,0,0,0-.79-.55,12.79,12.79,0,0,0-1.46-.36,9.11,9.11,0,0,1-2.23-.71,2.49,2.49,0,0,1-1-.9,2.53,2.53,0,0,1-.31-1.3,2.76,2.76,0,0,1,.87-2.11,3.26,3.26,0,0,1,2.33-.82A3.93,3.93,0,0,1,83.67,121.81Z"/><path class="cls-2" d="M87.31,121.08h8.35l.1,3.26h-.58a3.58,3.58,0,0,0-.71-2.09,2.26,2.26,0,0,0-1.71-.58h-1.4a.65.65,0,0,0-.45.13.47.47,0,0,0-.14.36v3.17h.51q1.52,0,1.76-1.82h.56v4.37H93a2.72,2.72,0,0,0-.23-1.11,1.58,1.58,0,0,0-.56-.64,1.51,1.51,0,0,0-.83-.23h-.64v3.45a.51.51,0,0,0,.15.4.73.73,0,0,0,.5.19h.9v.6h-5v-.6h.84a.62.62,0,0,0,.45-.16.53.53,0,0,0,.16-.39v-7.23a.43.43,0,0,0-.16-.38,1.26,1.26,0,0,0-.64-.11h-.65Z"/><path class="cls-2" d="M97.42,121.08h8.24l.19,3.31h-.56a5.39,5.39,0,0,0-.5-1.69,2,2,0,0,0-.78-.77,2.7,2.7,0,0,0-1.26-.26h-1.29a.65.65,0,0,0-.44.12.42.42,0,0,0-.13.33v3.28h.44a1.56,1.56,0,0,0,1.18-.44,2.24,2.24,0,0,0,.5-1.4h.58V128H103a2.42,2.42,0,0,0-.48-1.54,1.67,1.67,0,0,0-1.27-.45h-.36v3.5a.37.37,0,0,0,.13.33,1,1,0,0,0,.59.14h1.14a2.58,2.58,0,0,0,1.91-.75,3.74,3.74,0,0,0,.92-2.26h.58l-.14,3.6H97.42v-.6h.85a.6.6,0,0,0,.44-.15.53.53,0,0,0,.15-.4v-7.28a.39.39,0,0,0-.15-.34,1,1,0,0,0-.54-.11h-.75Z"/><path class="cls-2" d="M114.17,121.81l.6-.84h.45l.06,3.27h-.58a4.47,4.47,0,0,0-1.27-2.11,2.75,2.75,0,0,0-1.82-.7,2,2,0,0,0-1.39.46,1.42,1.42,0,0,0-.53,1.11,1.25,1.25,0,0,0,.21.7,1.64,1.64,0,0,0,.68.55,7.88,7.88,0,0,0,1.65.47,11.08,11.08,0,0,1,1.9.52,2.88,2.88,0,0,1,1.25,1,2.58,2.58,0,0,1,.42,1.49,2.62,2.62,0,0,1-.9,2.09,4,4,0,0,1-2.69.94,4.09,4.09,0,0,1-2.7-1l-.75.93h-.47v-3.51h.56q.84,3,3.4,3a2.48,2.48,0,0,0,1.63-.48,1.5,1.5,0,0,0,.58-1.21,1.37,1.37,0,0,0-.26-.85,1.76,1.76,0,0,0-.79-.55,12.79,12.79,0,0,0-1.46-.36,9.1,9.1,0,0,1-2.23-.71,2.5,2.5,0,0,1-1-.9,2.54,2.54,0,0,1-.31-1.3,2.76,2.76,0,0,1,.87-2.11,3.26,3.26,0,0,1,2.33-.82A3.93,3.93,0,0,1,114.17,121.81Z"/><path class="cls-2" d="M117.86,121.08h8.27l.21,3.6h-.58a6.69,6.69,0,0,0-.53-1.8,2.28,2.28,0,0,0-.75-.92,1.65,1.65,0,0,0-.92-.27.63.63,0,0,0-.42.12.43.43,0,0,0-.13.34v7.32a.47.47,0,0,0,.13.35.43.43,0,0,0,.32.13h1.07v.6h-5.06v-.6h1a.5.5,0,0,0,.36-.13.46.46,0,0,0,.13-.35v-7.28a.48.48,0,0,0-.14-.38.64.64,0,0,0-.43-.12q-1.63,0-2.21,3h-.56Z"/><path class="cls-2" d="M127.94,121.08h4.85v.59h-.88a.61.61,0,0,0-.41.11.41.41,0,0,0-.13.33v7.33a.44.44,0,0,0,.13.36.77.77,0,0,0,.5.14h.78v.6h-4.85v-.6h.74a.87.87,0,0,0,.54-.13.46.46,0,0,0,.16-.38V122.2a.5.5,0,0,0-.14-.4.66.66,0,0,0-.45-.13h-.84Z"/><path class="cls-2" d="M133.91,121.08h4.63v.59H138a1.52,1.52,0,0,0-.69.1.3.3,0,0,0-.17.27,1.64,1.64,0,0,0,.14.51l2.37,5.73,1.95-4.89a2.51,2.51,0,0,0,.19-.92.75.75,0,0,0-.24-.6,1.07,1.07,0,0,0-.72-.2h-.43v-.59h3.66v.59h-.28a.93.93,0,0,0-.63.24,2.35,2.35,0,0,0-.53.87l-3.22,8h-.76l-3.46-8.36a1.17,1.17,0,0,0-.4-.57,1.4,1.4,0,0,0-.72-.14h-.2Z"/><path class="cls-2" d="M148.27,120.84l3.55,8.49a1.13,1.13,0,0,0,.33.49.8.8,0,0,0,.47.13H153v.6h-4.44v-.6h.42a1.47,1.47,0,0,0,.68-.11.33.33,0,0,0,.19-.29.87.87,0,0,0-.08-.33l-.73-1.75h-3.54l-.34.8a2.16,2.16,0,0,0-.21.74.84.84,0,0,0,.31.67,1.26,1.26,0,0,0,.84.26h.3v.6h-3.6v-.6H143a.93.93,0,0,0,.61-.22,2,2,0,0,0,.58-.79l3.39-8.1Zm-1,2.4-1.52,3.61h3Z"/><path class="cls-2" d="M153.84,121.67v-.59h4.86v.59h-.82a.71.71,0,0,0-.49.13.58.58,0,0,0-.14.44v7a.76.76,0,0,0,.13.55,1.08,1.08,0,0,0,.63.12h1.36a1.92,1.92,0,0,0,1.42-.72,5.05,5.05,0,0,0,1-2.31h.58l-.22,3.63h-8.32v-.6h.83a.56.56,0,0,0,.42-.14.54.54,0,0,0,.14-.4v-7.24a.47.47,0,0,0-.14-.38.79.79,0,0,0-.5-.12Z"/><path class="cls-1" d="M61.5,141.65h2.95a.79.79,0,0,0,.64-.27,2.84,2.84,0,0,0,.39-1.18h.63l-.19,3.08H60.11v-.55A19.56,19.56,0,0,1,62,140.43a12.29,12.29,0,0,0,1.58-2,3.91,3.91,0,0,0,.49-1.86,1.85,1.85,0,0,0-.36-1.23,1.23,1.23,0,0,0-1-.42,1.62,1.62,0,0,0-1.06.34.94.94,0,0,0-.42.71.29.29,0,0,0,.1.23,1.17,1.17,0,0,0,.45.18q.77.2.77.86a1,1,0,0,1-.3.73,1,1,0,0,1-.75.28.94.94,0,0,1-.77-.39,1.76,1.76,0,0,1-.31-1.11,2.3,2.3,0,0,1,.65-1.67,2.89,2.89,0,0,1,2.18-.83,2.84,2.84,0,0,1,2,.68,2.19,2.19,0,0,1,.76,1.69,2.54,2.54,0,0,1-.19,1,3.8,3.8,0,0,1-.67,1.08,9.09,9.09,0,0,1-1.41,1.2q-1.07.77-1.47,1.11A7.6,7.6,0,0,0,61.5,141.65Z"/><path class="cls-1" d="M71.85,134.19a2.44,2.44,0,0,1,1.48.49,3.6,3.6,0,0,1,1.11,1.6,7.68,7.68,0,0,1,0,5.15A3.47,3.47,0,0,1,73.32,143a2.58,2.58,0,0,1-1.53.49,2.45,2.45,0,0,1-2.05-1.09,5.73,5.73,0,0,1-1-3.51,7,7,0,0,1,.44-2.62,3.51,3.51,0,0,1,1.13-1.59A2.59,2.59,0,0,1,71.85,134.19Zm1.1,4.91a11.47,11.47,0,0,0-.37-3.68q-.27-.64-.75-.64t-.86.92a14.52,14.52,0,0,0-.28,3.53,8.53,8.53,0,0,0,.4,3.1.78.78,0,0,0,.71.56.74.74,0,0,0,.55-.26,2.28,2.28,0,0,0,.4-1.09A13.37,13.37,0,0,0,72.95,139.1Z"/><path class="cls-1" d="M77.23,135.24a8.44,8.44,0,0,0,1.7-.26,6.84,6.84,0,0,0,1.4-.58h.47v7.83a.47.47,0,0,0,.13.36.48.48,0,0,0,.35.12h1.19v.6h-5v-.6h.93a.68.68,0,0,0,.51-.16.73.73,0,0,0,.15-.52v-5.81a.39.39,0,0,0-.13-.31.56.56,0,0,0-.38-.11H77.23Z"/><path class="cls-1" d="M87.08,138.68a3,3,0,0,1,.86-.66,2.1,2.1,0,0,1,.93-.22,2.41,2.41,0,0,1,1.64.65,2.46,2.46,0,0,1,.73,1.95,3.11,3.11,0,0,1-.83,2.25,2.86,2.86,0,0,1-2.16.85,2.72,2.72,0,0,1-2.23-1,5,5,0,0,1-1-3.25,5.84,5.84,0,0,1,1.15-3.77,3.13,3.13,0,0,1,2.53-1.27,2.37,2.37,0,0,1,1.55.48,1.42,1.42,0,0,1,.59,1.12,1,1,0,0,1-.28.76.93.93,0,0,1-.7.29.83.83,0,0,1-.62-.26.88.88,0,0,1-.25-.64,1.1,1.1,0,0,1,.16-.56.56.56,0,0,0,.09-.26.31.31,0,0,0-.13-.26.69.69,0,0,0-.41-.1,1.29,1.29,0,0,0-1.2.9A7.32,7.32,0,0,0,87.08,138.68Zm1.24,0a1.08,1.08,0,0,0-.86.52,2.51,2.51,0,0,0-.38,1.5,3.28,3.28,0,0,0,.41,1.77.88.88,0,0,0,.77.46,1,1,0,0,0,.82-.5,3.26,3.26,0,0,0,.33-1.7,3.06,3.06,0,0,0-.3-1.61A.91.91,0,0,0,88.32,138.65Z"/><path class="cls-1" d="M97.34,139.69h4v1.21h-4Z"/><path class="cls-1" d="M109,141.65h2.95a.79.79,0,0,0,.64-.27,2.84,2.84,0,0,0,.39-1.18h.63l-.19,3.08H107.6v-.55a19.53,19.53,0,0,1,1.85-2.29,12.29,12.29,0,0,0,1.58-2,3.91,3.91,0,0,0,.49-1.86,1.85,1.85,0,0,0-.36-1.23,1.23,1.23,0,0,0-1-.42,1.62,1.62,0,0,0-1.06.34.94.94,0,0,0-.42.71.29.29,0,0,0,.1.23,1.18,1.18,0,0,0,.45.18q.77.2.77.86a1,1,0,0,1-.3.73,1,1,0,0,1-.75.28.94.94,0,0,1-.77-.39,1.76,1.76,0,0,1-.31-1.11,2.3,2.3,0,0,1,.65-1.67,2.89,2.89,0,0,1,2.18-.83,2.84,2.84,0,0,1,2,.68,2.19,2.19,0,0,1,.76,1.69,2.56,2.56,0,0,1-.19,1,3.84,3.84,0,0,1-.67,1.08,9.09,9.09,0,0,1-1.41,1.2q-1.08.77-1.47,1.11A7.53,7.53,0,0,0,109,141.65Z"/><path class="cls-1" d="M119.33,134.19a2.44,2.44,0,0,1,1.48.49,3.6,3.6,0,0,1,1.11,1.6,7.7,7.7,0,0,1,0,5.15A3.48,3.48,0,0,1,120.8,143a2.58,2.58,0,0,1-1.53.49,2.45,2.45,0,0,1-2.05-1.09,5.72,5.72,0,0,1-1-3.51,7,7,0,0,1,.44-2.62,3.52,3.52,0,0,1,1.13-1.59A2.59,2.59,0,0,1,119.33,134.19Zm1.1,4.91a11.47,11.47,0,0,0-.37-3.68q-.27-.64-.75-.64t-.86.92a14.52,14.52,0,0,0-.28,3.53,8.53,8.53,0,0,0,.4,3.1.78.78,0,0,0,.71.56.74.74,0,0,0,.55-.26,2.28,2.28,0,0,0,.4-1.09A13.3,13.3,0,0,0,120.43,139.1Z"/><path class="cls-1" d="M124.71,135.24a8.42,8.42,0,0,0,1.7-.26,6.85,6.85,0,0,0,1.4-.58h.47v7.83a.47.47,0,0,0,.13.36.48.48,0,0,0,.35.12h1.19v.6h-5v-.6h.93a.69.69,0,0,0,.51-.16.73.73,0,0,0,.15-.52v-5.81a.39.39,0,0,0-.13-.31.56.56,0,0,0-.38-.11h-1.35Z"/><path class="cls-1" d="M136.78,138a3.76,3.76,0,0,1,1.57,1.07,2.42,2.42,0,0,1,.43,1.47,2.79,2.79,0,0,1-.85,2.11,3.21,3.21,0,0,1-2.31.81,3.39,3.39,0,0,1-2.21-.65,2.06,2.06,0,0,1-.8-1.67,1.88,1.88,0,0,1,.45-1.27,3.67,3.67,0,0,1,1.6-.92,3.35,3.35,0,0,1-1.33-1,2.19,2.19,0,0,1-.36-1.27,2.38,2.38,0,0,1,.78-1.79,2.75,2.75,0,0,1,2-.75,3,3,0,0,1,1.9.57,1.66,1.66,0,0,1,.72,1.32,1.7,1.7,0,0,1-.34,1A3.5,3.5,0,0,1,136.78,138Zm-1.57,1.2a2,2,0,0,0-.9.7,2.06,2.06,0,0,0-.29,1.15,1.84,1.84,0,0,0,.47,1.35,1.69,1.69,0,0,0,1.27.48,1.92,1.92,0,0,0,1.33-.46,1.51,1.51,0,0,0,.51-1.17,1.35,1.35,0,0,0-.5-1.1A7.59,7.59,0,0,0,135.2,139.24Zm1.08-1.38a2.43,2.43,0,0,0,.7-.73,1.77,1.77,0,0,0,.18-.84,1.43,1.43,0,0,0-1.52-1.52,1.44,1.44,0,0,0-1,.37,1.24,1.24,0,0,0-.39.94,1.26,1.26,0,0,0,.38.92A5.1,5.1,0,0,0,136.28,137.85Z"/><rect class="cls-1" x="25.8" y="134.85" width="3.01" height="47.43" transform="translate(-104.12 65.75) rotate(-45)"/><rect class="cls-1" x="166.53" y="-5.88" width="3.01" height="47.43" transform="translate(36.61 124.04) rotate(-45)"/><rect class="cls-2" x="72.92" y="112" width="53.05" height="1"/></svg>