<svg xmlns="http://www.w3.org/2000/svg" viewBox="0 0 187.3 177.58"><defs><style>.cls-1{fill:#e4112e;}.cls-2{fill:#1c1c1c;}.cls-3{fill:#676767;}</style></defs><title>Asset 2</title><g id="Layer_2" data-name="Layer 2"><g id="Layer_1-2" data-name="Layer 1"><path class="cls-1" d="M85.32,13a10.6,10.6,0,0,1,2.24,3.6,13,13,0,0,1,.81,4.66,12.73,12.73,0,0,1-.82,4.67,10.43,10.43,0,0,1-2.28,3.58A9.92,9.92,0,0,1,82,31.76a10.56,10.56,0,0,1-8.15-.05,9.64,9.64,0,0,1-3.28-2.35,10.64,10.64,0,0,1-2.15-3.58,12.83,12.83,0,0,1-.78-4.51,12.61,12.61,0,0,1,.82-4.69A11,11,0,0,1,70.7,13,9.79,9.79,0,0,1,74,10.72a10.44,10.44,0,0,1,8,0A9.69,9.69,0,0,1,85.32,13ZM83.05,28.31a10.09,10.09,0,0,0,1.24-3.13,18.07,18.07,0,0,0,.39-3.91,18,18,0,0,0-.43-4.08A10.09,10.09,0,0,0,83,14a6.07,6.07,0,0,0-2.1-2A5.72,5.72,0,0,0,78,11.28a5.55,5.55,0,0,0-3.11.84,6.51,6.51,0,0,0-2.08,2.24,10.75,10.75,0,0,0-1.13,3.13,18.49,18.49,0,0,0-.37,3.77,18.15,18.15,0,0,0,.4,4,10,10,0,0,0,1.25,3.13A6.16,6.16,0,0,0,75,30.45a5.67,5.67,0,0,0,3,.75,5.74,5.74,0,0,0,2.94-.76A6,6,0,0,0,83.05,28.31Z"/><path class="cls-1" d="M107.6,15.77a6.51,6.51,0,0,1-.66,3,6,6,0,0,1-1.83,2.15,7.9,7.9,0,0,1-2.54,1.25,10.63,10.63,0,0,1-2.94.4H97.21V29.1a2.32,2.32,0,0,0,.18.94,1.21,1.21,0,0,0,.72.62,4.72,4.72,0,0,0,1,.2,12.25,12.25,0,0,0,1.27.11V32H91.07V31l1.06-.11a3.65,3.65,0,0,0,1-.2,1.32,1.32,0,0,0,.66-.58,2,2,0,0,0,.21-1V13.52a2.84,2.84,0,0,0-.15-1,1.11,1.11,0,0,0-.72-.64,6.51,6.51,0,0,0-1.15-.28q-.57-.08-1-.11V10.45h9.86a7.77,7.77,0,0,1,4.89,1.45A4.65,4.65,0,0,1,107.6,15.77ZM103,19.45a4.1,4.1,0,0,0,.69-1.51,6.83,6.83,0,0,0,.17-1.41,8,8,0,0,0-.21-1.77,4.12,4.12,0,0,0-.71-1.57,3.55,3.55,0,0,0-1.4-1.11,5.21,5.21,0,0,0-2.16-.4H97.21v9.54h1.55a6,6,0,0,0,2.67-.51A3.91,3.91,0,0,0,103,19.45Z"/><path class="cls-1" d="M114.9,30.29a2,2,0,0,1-.62,1.45,2.09,2.09,0,0,1-2.94,0,2,2,0,0,1-.62-1.45,2.08,2.08,0,0,1,4.17,0Z"/><path class="cls-1" d="M56.55,66.15H50.74q-1.93-3-3.49-5.23t-3.38-4.55H41.65v6.85a2.4,2.4,0,0,0,.17.94,1.17,1.17,0,0,0,.71.62,4.73,4.73,0,0,0,1,.2q.69.09,1.16.11v1.08H35.52V65.07L36.58,65a3.65,3.65,0,0,0,1-.2,1.32,1.32,0,0,0,.66-.58,2,2,0,0,0,.21-1V47.6a2.71,2.71,0,0,0-.15-.94,1.12,1.12,0,0,0-.72-.62,6.68,6.68,0,0,0-1-.25,9.35,9.35,0,0,0-1-.14V44.55h10a11.24,11.24,0,0,1,2.57.28,6.93,6.93,0,0,1,2.18.91,4.57,4.57,0,0,1,1.51,1.59,4.67,4.67,0,0,1,.56,2.37,6,6,0,0,1-.38,2.21,4.57,4.57,0,0,1-1.13,1.66,6.66,6.66,0,0,1-1.64,1.13,12.42,12.42,0,0,1-2.11.81q1.6,2.11,2.65,3.56l2.6,3.51a7.19,7.19,0,0,0,1.21,1.35,6.44,6.44,0,0,0,1.07.71,3.68,3.68,0,0,0,1,.3,7.4,7.4,0,0,0,1,.12Zm-8-16.09a3.94,3.94,0,0,0-4.31-4.25H41.65v9.25h2a4.71,4.71,0,0,0,4.9-5Z"/><path class="cls-1" d="M75.54,59.79l-.41,6.36H57.21V65.07q.46,0,1.22-.13a4.13,4.13,0,0,0,1-.2,1.39,1.39,0,0,0,.68-.59,2,2,0,0,0,.19-.93V47.69a2.23,2.23,0,0,0-.17-.89,1.3,1.3,0,0,0-.7-.63,5.17,5.17,0,0,0-1.1-.35,8.32,8.32,0,0,0-1.1-.18V44.55H73.91v5.2H72.77a7,7,0,0,0-1.32-2.46,3.25,3.25,0,0,0-1.92-1.42q-.47-.06-1.13-.09t-1.49,0H63.52v8.58H66a4.87,4.87,0,0,0,1.71-.22,2.36,2.36,0,0,0,1-.74,4,4,0,0,0,.57-1.18,7.47,7.47,0,0,0,.31-1.39h1.14v8.46H69.5a6.77,6.77,0,0,0-.33-1.54,4,4,0,0,0-.55-1.18,2.2,2.2,0,0,0-1.07-.78A5.64,5.64,0,0,0,66,55.59H63.52v6.47a6.77,6.77,0,0,0,.14,1.53,1.42,1.42,0,0,0,.53.85,2.28,2.28,0,0,0,1.08.37,17.35,17.35,0,0,0,1.95.08h1.32a13.21,13.21,0,0,0,1.38-.06,8.2,8.2,0,0,0,1.19-.22,1.82,1.82,0,0,0,.87-.43A9.73,9.73,0,0,0,73.47,62a14.87,14.87,0,0,0,1-2.18Z"/><path class="cls-1" d="M87.25,66.67a9.28,9.28,0,0,1-3.7-.76,9.5,9.5,0,0,1-3.14-2.19,10.66,10.66,0,0,1-2.16-3.49,12.7,12.7,0,0,1-.81-4.65,13.29,13.29,0,0,1,.79-4.7,11,11,0,0,1,2.19-3.63,9.6,9.6,0,0,1,3.27-2.33,10,10,0,0,1,4-.82,9.83,9.83,0,0,1,2.89.4,10.68,10.68,0,0,1,2.46,1.11l.62-1h1.22l.14,7.7H93.8a18.39,18.39,0,0,0-.73-2.44,9.44,9.44,0,0,0-1.14-2.23A5.5,5.5,0,0,0,90.2,46a4.46,4.46,0,0,0-2.3-.59,5.89,5.89,0,0,0-2.74.65A6.24,6.24,0,0,0,83,48a9.55,9.55,0,0,0-1.38,3.14,16.74,16.74,0,0,0-.5,4.25,13.06,13.06,0,0,0,.52,3.8,9.81,9.81,0,0,0,1.5,3,7.22,7.22,0,0,0,2.3,2,6.06,6.06,0,0,0,3,.73,6.4,6.4,0,0,0,2.27-.39,6.09,6.09,0,0,0,1.79-1A8,8,0,0,0,93.77,62a8.41,8.41,0,0,0,.94-1.86l1.14.55a8.52,8.52,0,0,1-8.61,6Z"/><path class="cls-1" d="M120.11,66.15h-9V65.07l1.06-.09a3.19,3.19,0,0,0,1-.18,1.29,1.29,0,0,0,.67-.56,1.94,1.94,0,0,0,.21-1V55.59H103.89V63.1a2.08,2.08,0,0,0,.17.9,1.51,1.51,0,0,0,.69.64,3.86,3.86,0,0,0,.92.27,6.84,6.84,0,0,0,1,.15v1.08h-9V65.07L98.82,65a3.18,3.18,0,0,0,1-.18,1.29,1.29,0,0,0,.67-.56,1.94,1.94,0,0,0,.21-1V47.69a2,2,0,0,0-.2-.89,1.38,1.38,0,0,0-.69-.63,5.53,5.53,0,0,0-1-.35,5.77,5.77,0,0,0-1-.18V44.55h9v1.08a6.8,6.8,0,0,0-1,.14,7.26,7.26,0,0,0-.92.23,1.09,1.09,0,0,0-.69.61,2.43,2.43,0,0,0-.17.93v6.7H114V47.69a2,2,0,0,0-.2-.89,1.37,1.37,0,0,0-.68-.63,5.55,5.55,0,0,0-1-.35,5.73,5.73,0,0,0-1-.18V44.55h9v1.08a6.76,6.76,0,0,0-1,.14,7.26,7.26,0,0,0-.92.23,1.09,1.09,0,0,0-.69.61,2.41,2.41,0,0,0-.18.93V63.1a2.06,2.06,0,0,0,.18.9,1.51,1.51,0,0,0,.69.64,3.86,3.86,0,0,0,.92.27,6.81,6.81,0,0,0,1,.15Z"/><path class="cls-1" d="M140.72,50.41h-1a7.3,7.3,0,0,0-.5-1.3,11.75,11.75,0,0,0-.8-1.42,7.18,7.18,0,0,0-1-1.23,2,2,0,0,0-1-.6q-.47-.06-1.19-.09l-1.33,0h-.88V63a2,2,0,0,0,.21.92,1.41,1.41,0,0,0,.75.65,8.82,8.82,0,0,0,1.15.29,8.44,8.44,0,0,0,1.36.2v1.08H126.2V65.07l1.3-.12a5,5,0,0,0,1.21-.23,1.48,1.48,0,0,0,.74-.57,1.86,1.86,0,0,0,.24-1V45.74h-.88l-1.17,0q-.7,0-1.34.1a1.85,1.85,0,0,0-1,.6,8,8,0,0,0-1,1.23,10.17,10.17,0,0,0-.81,1.45,8.68,8.68,0,0,0-.49,1.27h-1.06V44.55h18.82Z"/><path class="cls-1" d="M147.26,64.4a2,2,0,0,1-.62,1.45,2.09,2.09,0,0,1-2.94,0,2,2,0,0,1-.62-1.45,2.08,2.08,0,0,1,4.17,0Z"/><path class="cls-1" d="M30.12,100.26H20.58V99.18c.34,0,.79,0,1.33-.11A3.37,3.37,0,0,0,23,98.81a2,2,0,0,0,.69-.66,1.82,1.82,0,0,0,.22-.94V81.51h-.23l-7.37,18.4h-.76l-7-18.78h-.2V94a12.88,12.88,0,0,0,.24,2.85,2.64,2.64,0,0,0,.72,1.4,3.5,3.5,0,0,0,1.38.61,8.4,8.4,0,0,0,1.37.3v1.08H3.37V99.18a11.25,11.25,0,0,0,1.44-.23A2.78,2.78,0,0,0,6,98.45a2.23,2.23,0,0,0,.73-1.31,15.23,15.23,0,0,0,.2-3v-11a4.53,4.53,0,0,0-.23-1.57,2.45,2.45,0,0,0-.65-1A3,3,0,0,0,4.86,80a5.82,5.82,0,0,0-1.35-.23V78.66h7.36l6.18,16.21,5.28-13.56a13.51,13.51,0,0,0,.49-1.56A7.4,7.4,0,0,0,23,78.66h7v1.08a7.81,7.81,0,0,0-1.09.14,7.07,7.07,0,0,0-1,.23,1.12,1.12,0,0,0-.7.61,2.33,2.33,0,0,0-.18.93V97.21a2,2,0,0,0,.18.9,1.56,1.56,0,0,0,.7.64A3.54,3.54,0,0,0,29,99a8.14,8.14,0,0,0,1.11.14Z"/><path class="cls-1" d="M51.18,93.9l-.41,6.36H32.84V99.18q.46,0,1.22-.13a4.13,4.13,0,0,0,1-.2,1.39,1.39,0,0,0,.68-.59,2,2,0,0,0,.19-.93V81.8a2.23,2.23,0,0,0-.17-.89,1.3,1.3,0,0,0-.7-.63,5.17,5.17,0,0,0-1.1-.35,8.32,8.32,0,0,0-1.1-.18V78.66H49.55v5.2H48.41a7,7,0,0,0-1.32-2.46A3.25,3.25,0,0,0,45.17,80q-.47-.06-1.13-.09t-1.49,0H39.16v8.58h2.43a4.87,4.87,0,0,0,1.71-.22,2.36,2.36,0,0,0,1-.74,4,4,0,0,0,.57-1.18,7.47,7.47,0,0,0,.31-1.39h1.14v8.46H45.14a6.77,6.77,0,0,0-.33-1.54,4,4,0,0,0-.55-1.18,2.2,2.2,0,0,0-1.07-.78,5.64,5.64,0,0,0-1.59-.18H39.16v6.47a6.77,6.77,0,0,0,.14,1.53,1.42,1.42,0,0,0,.53.85,2.28,2.28,0,0,0,1.08.37,17.35,17.35,0,0,0,1.95.08h1.32a13.21,13.21,0,0,0,1.38-.06,8.2,8.2,0,0,0,1.19-.22,1.82,1.82,0,0,0,.87-.43,9.73,9.73,0,0,0,1.47-2.21,14.87,14.87,0,0,0,1-2.18Z"/><path class="cls-1" d="M62.89,100.77a9.27,9.27,0,0,1-3.7-.76A9.47,9.47,0,0,1,56,97.82a10.66,10.66,0,0,1-2.16-3.49,12.7,12.7,0,0,1-.81-4.65,13.29,13.29,0,0,1,.79-4.7,11,11,0,0,1,2.19-3.63A9.6,9.6,0,0,1,59.33,79a10,10,0,0,1,4-.82,9.82,9.82,0,0,1,2.89.4,10.72,10.72,0,0,1,2.46,1.11l.62-1h1.22l.14,7.7H69.44a18.19,18.19,0,0,0-.73-2.44,9.44,9.44,0,0,0-1.14-2.23,5.54,5.54,0,0,0-1.73-1.62,4.46,4.46,0,0,0-2.3-.59,5.9,5.9,0,0,0-2.74.65,6.25,6.25,0,0,0-2.2,1.93,9.55,9.55,0,0,0-1.38,3.14,16.68,16.68,0,0,0-.5,4.25,13,13,0,0,0,.52,3.8,9.81,9.81,0,0,0,1.5,3,7.19,7.19,0,0,0,2.3,2,6.06,6.06,0,0,0,3,.73,6.39,6.39,0,0,0,2.26-.39,6.07,6.07,0,0,0,1.79-1,8,8,0,0,0,1.34-1.52,8.41,8.41,0,0,0,.94-1.86l1.14.55a8.52,8.52,0,0,1-8.61,6Z"/><path class="cls-1" d="M95.75,100.26h-9V99.18l1.06-.09a3.18,3.18,0,0,0,1-.18,1.29,1.29,0,0,0,.67-.56,1.94,1.94,0,0,0,.21-1V89.7H79.53v7.52a2.06,2.06,0,0,0,.18.9,1.51,1.51,0,0,0,.69.64,3.86,3.86,0,0,0,.92.27,6.81,6.81,0,0,0,1,.15v1.08h-9V99.18l1.06-.09a3.18,3.18,0,0,0,1-.18,1.29,1.29,0,0,0,.67-.56,1.94,1.94,0,0,0,.21-1V81.8a2,2,0,0,0-.2-.89,1.37,1.37,0,0,0-.69-.63,5.49,5.49,0,0,0-1-.35,5.74,5.74,0,0,0-1-.18V78.66h9v1.08a6.76,6.76,0,0,0-1,.14,7.26,7.26,0,0,0-.92.23,1.09,1.09,0,0,0-.69.61,2.41,2.41,0,0,0-.18.93v6.7H89.68V81.8a2,2,0,0,0-.2-.89,1.38,1.38,0,0,0-.69-.63,5.53,5.53,0,0,0-1-.35,5.77,5.77,0,0,0-1-.18V78.66h9v1.08a6.8,6.8,0,0,0-1,.14,7.29,7.29,0,0,0-.92.23,1.09,1.09,0,0,0-.69.61,2.43,2.43,0,0,0-.17.93V97.21a2.08,2.08,0,0,0,.17.9,1.51,1.51,0,0,0,.69.64,3.87,3.87,0,0,0,.92.27,6.84,6.84,0,0,0,1,.15Z"/><path class="cls-1" d="M116.95,93.9l-.41,6.36H98.61V99.18q.46,0,1.22-.13a4.14,4.14,0,0,0,1-.2,1.4,1.4,0,0,0,.68-.59,2,2,0,0,0,.19-.93V81.8a2.23,2.23,0,0,0-.17-.89,1.3,1.3,0,0,0-.7-.63,5.16,5.16,0,0,0-1.1-.35,8.28,8.28,0,0,0-1.1-.18V78.66h16.71v5.2h-1.14a7.06,7.06,0,0,0-1.32-2.46A3.25,3.25,0,0,0,110.94,80q-.47-.06-1.13-.09c-.44,0-.93,0-1.49,0h-3.39v8.58h2.43a4.86,4.86,0,0,0,1.71-.22,2.34,2.34,0,0,0,1-.74,4,4,0,0,0,.57-1.18,7.36,7.36,0,0,0,.31-1.39H112v8.46h-1.14a6.85,6.85,0,0,0-.33-1.54,4,4,0,0,0-.56-1.18,2.19,2.19,0,0,0-1.07-.78,5.64,5.64,0,0,0-1.59-.18h-2.43v6.47a6.76,6.76,0,0,0,.14,1.53,1.42,1.42,0,0,0,.53.85,2.28,2.28,0,0,0,1.08.37,17.38,17.38,0,0,0,1.95.08h1.32a13.24,13.24,0,0,0,1.39-.06,8.2,8.2,0,0,0,1.19-.22,1.84,1.84,0,0,0,.87-.43,9.73,9.73,0,0,0,1.47-2.21,15,15,0,0,0,1-2.18Z"/><path class="cls-1" d="M136.49,93.83l-.46,6.42H119.15V99.18l1.06-.11a3.65,3.65,0,0,0,1-.2,1.32,1.32,0,0,0,.66-.58,2,2,0,0,0,.21-1V81.86a2.23,2.23,0,0,0-.18-.91,1.33,1.33,0,0,0-.69-.64,5.24,5.24,0,0,0-1-.36,5.68,5.68,0,0,0-1-.2V78.66h9.12v1.08a7.08,7.08,0,0,0-1.1.15,8.2,8.2,0,0,0-1,.24,1.14,1.14,0,0,0-.71.62,2.37,2.37,0,0,0-.19.94v14.5a9.52,9.52,0,0,0,.1,1.56,1.39,1.39,0,0,0,.46.86,2.09,2.09,0,0,0,1,.36,17.16,17.16,0,0,0,1.94.08L130,99a10.13,10.13,0,0,0,1.16-.12,5.93,5.93,0,0,0,1-.25,1.56,1.56,0,0,0,.66-.4,13.62,13.62,0,0,0,1.45-2.12,15.07,15.07,0,0,0,1.15-2.3Z"/><path class="cls-1" d="M156.12,93.9l-.41,6.36H137.78V99.18q.46,0,1.22-.13a4.13,4.13,0,0,0,1-.2,1.39,1.39,0,0,0,.68-.59,2,2,0,0,0,.19-.93V81.8a2.23,2.23,0,0,0-.17-.89,1.3,1.3,0,0,0-.7-.63,5.17,5.17,0,0,0-1.1-.35,8.32,8.32,0,0,0-1.1-.18V78.66h16.71v5.2h-1.14A7,7,0,0,0,152,81.41,3.25,3.25,0,0,0,150.11,80q-.47-.06-1.13-.09t-1.49,0H144.1v8.58h2.43a4.87,4.87,0,0,0,1.71-.22,2.36,2.36,0,0,0,1-.74,4,4,0,0,0,.57-1.18,7.47,7.47,0,0,0,.31-1.39h1.14v8.46h-1.14a6.77,6.77,0,0,0-.33-1.54,4,4,0,0,0-.55-1.18,2.2,2.2,0,0,0-1.07-.78,5.64,5.64,0,0,0-1.59-.18H144.1v6.47a6.77,6.77,0,0,0,.14,1.53,1.42,1.42,0,0,0,.53.85,2.28,2.28,0,0,0,1.08.37,17.35,17.35,0,0,0,1.95.08h1.32a13.21,13.21,0,0,0,1.38-.06,8.2,8.2,0,0,0,1.19-.22,1.82,1.82,0,0,0,.87-.43A9.73,9.73,0,0,0,154,96.08a14.87,14.87,0,0,0,1-2.18Z"/><path class="cls-1" d="M180.48,79.74a6.82,6.82,0,0,0-1.31.24,4.7,4.7,0,0,0-1.26.47,2.15,2.15,0,0,0-.74,1.46,16.18,16.18,0,0,0-.19,2.74v15.81h-1.32L162.57,82.8V93.94a13.43,13.43,0,0,0,.23,2.88,2.67,2.67,0,0,0,.72,1.43,3.55,3.55,0,0,0,1.45.62,8.88,8.88,0,0,0,1.45.3v1.08h-8.86V99.18a8.56,8.56,0,0,0,1.38-.3,3.66,3.66,0,0,0,1.22-.48,2.22,2.22,0,0,0,.73-1.3,15.47,15.47,0,0,0,.2-3V83.47a4.24,4.24,0,0,0-.24-1.4A2.6,2.6,0,0,0,160.2,81a4.6,4.6,0,0,0-1.48-.86,5.29,5.29,0,0,0-1.51-.39V78.66h6.17l12.14,16.46V84.86a13.15,13.15,0,0,0-.24-2.9,2.3,2.3,0,0,0-.7-1.35,5.08,5.08,0,0,0-1.39-.56,7.61,7.61,0,0,0-1.47-.3V78.66h8.78Z"/><path class="cls-2" d="M34.55,125.23a2.18,2.18,0,0,1,.43.71,2.68,2.68,0,0,1,.14.9,2.57,2.57,0,0,1-.91,2,3.29,3.29,0,0,1-2.25.8,4.18,4.18,0,0,1-1.24-.19,4.78,4.78,0,0,1-1.07-.47l-.28.48h-.52l-.09-3.17h.53a6.91,6.91,0,0,0,.38,1.06,3.67,3.67,0,0,0,.58.88,2.61,2.61,0,0,0,.79.61,2.31,2.31,0,0,0,1.05.23,2.39,2.39,0,0,0,.79-.12,1.38,1.38,0,0,0,.54-.33,1.36,1.36,0,0,0,.31-.51,2,2,0,0,0,.1-.67,1.86,1.86,0,0,0-.31-1,1.92,1.92,0,0,0-.93-.73l-1-.37q-.55-.2-.94-.39a3.07,3.07,0,0,1-1.22-.92,2.39,2.39,0,0,1-.43-1.49,2.28,2.28,0,0,1,.22-1,2.57,2.57,0,0,1,.61-.81,2.78,2.78,0,0,1,.89-.53,3.06,3.06,0,0,1,1.08-.19,3.15,3.15,0,0,1,1.14.2,5.45,5.45,0,0,1,.92.46l.27-.44h.52l.05,3.07H34.2q-.14-.53-.32-1a3.57,3.57,0,0,0-.47-.87,2.15,2.15,0,0,0-.68-.6,2,2,0,0,0-1-.22,1.51,1.51,0,0,0-1.06.4,1.26,1.26,0,0,0-.44,1,1.67,1.67,0,0,0,.28,1,2,2,0,0,0,.81.65,10,10,0,0,0,.93.39q.46.17.89.36a6.56,6.56,0,0,1,.75.38A2.81,2.81,0,0,1,34.55,125.23Z"/><path class="cls-2" d="M43.8,122.74h-.45a3.12,3.12,0,0,0-.21-.56,5.07,5.07,0,0,0-.34-.61,3.05,3.05,0,0,0-.43-.52.85.85,0,0,0-.45-.26l-.51,0h-.95v7.4a.85.85,0,0,0,.09.39.61.61,0,0,0,.32.28,3.85,3.85,0,0,0,.49.12,3.62,3.62,0,0,0,.58.08v.46H37.58V129l.56-.05a2.15,2.15,0,0,0,.52-.1.63.63,0,0,0,.32-.24.79.79,0,0,0,.1-.43v-7.46H38.2l-.57,0a.79.79,0,0,0-.45.26,3.42,3.42,0,0,0-.43.52,4.47,4.47,0,0,0-.35.62,3.81,3.81,0,0,0-.21.54h-.46v-2.51H43.8Z"/><path class="cls-2" d="M53.16,129.48H49.32V129a4,4,0,0,0,.84-.13q.34-.1.34-.24a1,1,0,0,0,0-.14.73.73,0,0,0,0-.15l-.77-2.07H46.43q-.18.46-.3.8l-.21.63a4.46,4.46,0,0,0-.12.46,1.58,1.58,0,0,0,0,.29q0,.26.41.4a3.31,3.31,0,0,0,.93.17v.46H43.63V129a2.74,2.74,0,0,0,.42-.07,1.38,1.38,0,0,0,.42-.17,1.64,1.64,0,0,0,.4-.37,2.42,2.42,0,0,0,.28-.53q.7-1.74,1.54-3.91l1.5-3.86h.52l3.08,8a1.57,1.57,0,0,0,.22.41,1.53,1.53,0,0,0,.35.31,1.43,1.43,0,0,0,.39.15,2,2,0,0,0,.4.07Zm-3.72-3.78L48,122.11l-1.38,3.59Z"/><path class="cls-2" d="M62.35,124.91a4.44,4.44,0,0,1-.44,2,4.19,4.19,0,0,1-1.15,1.42,5,5,0,0,1-1.61.83,6.26,6.26,0,0,1-1.84.27H53.47V129l.49,0a1.57,1.57,0,0,0,.4-.08.55.55,0,0,0,.28-.25.83.83,0,0,0,.09-.4v-6.67a1,1,0,0,0-.08-.4.56.56,0,0,0-.3-.28,1.78,1.78,0,0,0-.44-.14l-.4-.06v-.46h4a5.4,5.4,0,0,1,1.64.26,4.91,4.91,0,0,1,1.41.69,4,4,0,0,1,1.28,1.52A4.94,4.94,0,0,1,62.35,124.91Zm-1.6,0a5.36,5.36,0,0,0-.25-1.68,3.86,3.86,0,0,0-.72-1.31,3.19,3.19,0,0,0-1.1-.84,3.4,3.4,0,0,0-1.46-.31h-.6l-.5,0v7.1a.91.91,0,0,0,.35.82,2,2,0,0,0,1.06.23,3.35,3.35,0,0,0,1.45-.29,2.6,2.6,0,0,0,1-.81,3.64,3.64,0,0,0,.59-1.27A6.72,6.72,0,0,0,60.75,124.9Z"/><path class="cls-2" d="M69.24,125.23a2.18,2.18,0,0,1,.43.71,2.68,2.68,0,0,1,.14.9,2.57,2.57,0,0,1-.91,2,3.29,3.29,0,0,1-2.25.8,4.18,4.18,0,0,1-1.24-.19,4.78,4.78,0,0,1-1.07-.47l-.28.48h-.52l-.09-3.17H64a6.91,6.91,0,0,0,.38,1.06,3.67,3.67,0,0,0,.58.88,2.61,2.61,0,0,0,.79.61,2.31,2.31,0,0,0,1.05.23,2.39,2.39,0,0,0,.79-.12,1.38,1.38,0,0,0,.54-.33,1.36,1.36,0,0,0,.31-.51,2,2,0,0,0,.1-.67,1.86,1.86,0,0,0-.31-1,1.92,1.92,0,0,0-.93-.73l-1-.37q-.55-.2-.94-.39a3.07,3.07,0,0,1-1.22-.92,2.39,2.39,0,0,1-.43-1.49,2.28,2.28,0,0,1,.22-1,2.57,2.57,0,0,1,.61-.81,2.78,2.78,0,0,1,.89-.53,3.06,3.06,0,0,1,1.08-.19,3.15,3.15,0,0,1,1.14.2,5.45,5.45,0,0,1,.92.46l.27-.44h.52l.05,3.07H68.9q-.14-.53-.32-1a3.57,3.57,0,0,0-.47-.87,2.15,2.15,0,0,0-.68-.6,2,2,0,0,0-1-.22,1.51,1.51,0,0,0-1.06.4,1.26,1.26,0,0,0-.44,1,1.67,1.67,0,0,0,.28,1,2,2,0,0,0,.81.65A10,10,0,0,0,67,124q.46.17.89.36a6.56,6.56,0,0,1,.75.38A2.81,2.81,0,0,1,69.24,125.23Z"/><path class="cls-2" d="M78.75,126.75l-.18,2.72H70.9V129l.52-.06a1.74,1.74,0,0,0,.42-.09.6.6,0,0,0,.29-.25.87.87,0,0,0,.08-.4v-6.65a1,1,0,0,0-.07-.38.56.56,0,0,0-.3-.27,2.21,2.21,0,0,0-.47-.15,3.55,3.55,0,0,0-.47-.08v-.46h7.16v2.23h-.49A3,3,0,0,0,77,121.4a1.39,1.39,0,0,0-.82-.61l-.48,0H73.6v3.68h1a2.09,2.09,0,0,0,.73-.09,1,1,0,0,0,.41-.32,1.7,1.7,0,0,0,.24-.5,3.23,3.23,0,0,0,.13-.6h.49v3.62h-.49a2.92,2.92,0,0,0-.14-.66,1.7,1.7,0,0,0-.24-.5.94.94,0,0,0-.46-.33,2.42,2.42,0,0,0-.68-.08h-1v2.77a2.9,2.9,0,0,0,.06.66.61.61,0,0,0,.23.36,1,1,0,0,0,.46.16,7.37,7.37,0,0,0,.83,0h.57a5.66,5.66,0,0,0,.59,0,3.57,3.57,0,0,0,.51-.09.79.79,0,0,0,.38-.19,4.17,4.17,0,0,0,.63-.95,6.42,6.42,0,0,0,.42-.94Z"/><path class="cls-2" d="M88.23,120.69a1.77,1.77,0,0,0-.41.08,1.53,1.53,0,0,0-.4.17,1.08,1.08,0,0,0-.36.35,4.21,4.21,0,0,0-.26.51q-.44,1-1.31,3.23t-1.8,4.57h-.54l-1.81-4.86-1.19-3.16a1.24,1.24,0,0,0-.21-.36,1.54,1.54,0,0,0-.35-.29,1.39,1.39,0,0,0-.39-.17,2.31,2.31,0,0,0-.4-.07v-.46h3.83v.46a5.41,5.41,0,0,0-.82.1q-.34.07-.34.25a.64.64,0,0,0,0,.17l0,.16.78,2.08,1.54,4.11q.49-1.21,1.14-2.85t.87-2.26a5.4,5.4,0,0,0,.25-.82,2.51,2.51,0,0,0,0-.37A.3.3,0,0,0,86,121a1.2,1.2,0,0,0-.35-.17,3,3,0,0,0-.44-.1l-.45-.05v-.46h3.44Z"/><path class="cls-2" d="M96.37,126.75l-.18,2.72H88.51V129L89,129a1.74,1.74,0,0,0,.42-.09.6.6,0,0,0,.29-.25.87.87,0,0,0,.08-.4v-6.65a1,1,0,0,0-.07-.38.56.56,0,0,0-.3-.27,2.21,2.21,0,0,0-.47-.15,3.55,3.55,0,0,0-.47-.08v-.46h7.16v2.23h-.49a3,3,0,0,0-.56-1.05,1.39,1.39,0,0,0-.82-.61l-.48,0H91.22v3.68h1a2.09,2.09,0,0,0,.73-.09,1,1,0,0,0,.41-.32,1.7,1.7,0,0,0,.24-.5,3.23,3.23,0,0,0,.13-.6h.49v3.62h-.49a2.92,2.92,0,0,0-.14-.66,1.7,1.7,0,0,0-.24-.5.94.94,0,0,0-.46-.33,2.42,2.42,0,0,0-.68-.08h-1v2.77a2.9,2.9,0,0,0,.06.66.61.61,0,0,0,.23.36,1,1,0,0,0,.46.16,7.37,7.37,0,0,0,.83,0h.57a5.66,5.66,0,0,0,.59,0,3.57,3.57,0,0,0,.51-.09.79.79,0,0,0,.38-.19,4.17,4.17,0,0,0,.63-.95,6.42,6.42,0,0,0,.42-.94Z"/><path class="cls-2" d="M106.8,120.69a2.92,2.92,0,0,0-.56.1,2,2,0,0,0-.54.2.92.92,0,0,0-.32.63,7,7,0,0,0-.08,1.17v6.77h-.57L99.13,122v4.77a5.72,5.72,0,0,0,.1,1.23,1.14,1.14,0,0,0,.31.61,1.52,1.52,0,0,0,.62.27,3.8,3.8,0,0,0,.62.13v.46H97V129a3.64,3.64,0,0,0,.59-.13,1.57,1.57,0,0,0,.52-.21,1,1,0,0,0,.31-.56,6.61,6.61,0,0,0,.08-1.28v-4.56a1.82,1.82,0,0,0-.1-.6,1.12,1.12,0,0,0-.28-.46,2,2,0,0,0-.64-.37,2.27,2.27,0,0,0-.65-.17v-.46h2.64l5.2,7.05v-4.4a5.63,5.63,0,0,0-.1-1.24,1,1,0,0,0-.3-.58,2.19,2.19,0,0,0-.6-.24,3.27,3.27,0,0,0-.63-.13v-.46h3.76Z"/><path class="cls-2" d="M115.33,126.75l-.18,2.72h-7.68V129L108,129a1.74,1.74,0,0,0,.42-.09.6.6,0,0,0,.29-.25.87.87,0,0,0,.08-.4v-6.65a1,1,0,0,0-.07-.38.56.56,0,0,0-.3-.27,2.21,2.21,0,0,0-.47-.15,3.55,3.55,0,0,0-.47-.08v-.46h7.16v2.23h-.49a3,3,0,0,0-.56-1.05,1.39,1.39,0,0,0-.82-.61l-.48,0h-2.09v3.68h1a2.09,2.09,0,0,0,.73-.09,1,1,0,0,0,.41-.32,1.7,1.7,0,0,0,.24-.5,3.23,3.23,0,0,0,.13-.6h.49v3.62h-.49a2.92,2.92,0,0,0-.14-.66,1.7,1.7,0,0,0-.24-.5.94.94,0,0,0-.46-.33,2.42,2.42,0,0,0-.68-.08h-1v2.77a2.9,2.9,0,0,0,.06.66.61.61,0,0,0,.23.36,1,1,0,0,0,.46.16,7.37,7.37,0,0,0,.83,0h.57a5.66,5.66,0,0,0,.59,0,3.57,3.57,0,0,0,.51-.09.79.79,0,0,0,.38-.19,4.17,4.17,0,0,0,.63-.95,6.42,6.42,0,0,0,.42-.94Z"/><path class="cls-2" d="M127.4,129.48h-4.09V129l.57,0a1.44,1.44,0,0,0,.48-.11.86.86,0,0,0,.3-.28.78.78,0,0,0,.09-.4v-6.73h-.1l-3.15,7.88h-.33l-3-8h-.08v5.52a5.53,5.53,0,0,0,.1,1.22,1.13,1.13,0,0,0,.31.6,1.5,1.5,0,0,0,.59.26,3.58,3.58,0,0,0,.59.13v.46h-3.73V129a4.78,4.78,0,0,0,.62-.1,1.19,1.19,0,0,0,.5-.22,1,1,0,0,0,.31-.56,6.52,6.52,0,0,0,.08-1.26v-4.73a1.94,1.94,0,0,0-.1-.67,1,1,0,0,0-.28-.42,1.29,1.29,0,0,0-.5-.26,2.49,2.49,0,0,0-.58-.1v-.46h3.15l2.65,6.94,2.26-5.81a5.72,5.72,0,0,0,.21-.67,3.11,3.11,0,0,0,.09-.47h3v.46a3.36,3.36,0,0,0-.47.06l-.41.1a.48.48,0,0,0-.3.26,1,1,0,0,0-.08.4v6.67a.85.85,0,0,0,.08.38.67.67,0,0,0,.3.27,1.51,1.51,0,0,0,.42.12,3.47,3.47,0,0,0,.48.06Z"/><path class="cls-2" d="M136.42,126.75l-.18,2.72h-7.68V129l.52-.06a1.74,1.74,0,0,0,.42-.09.6.6,0,0,0,.29-.25.87.87,0,0,0,.08-.4v-6.65a1,1,0,0,0-.07-.38.56.56,0,0,0-.3-.27,2.21,2.21,0,0,0-.47-.15,3.55,3.55,0,0,0-.47-.08v-.46h7.16v2.23h-.49a3,3,0,0,0-.56-1.05,1.39,1.39,0,0,0-.82-.61l-.48,0h-2.09v3.68h1a2.09,2.09,0,0,0,.73-.09,1,1,0,0,0,.41-.32,1.7,1.7,0,0,0,.24-.5,3.23,3.23,0,0,0,.13-.6h.49v3.62h-.49a2.92,2.92,0,0,0-.14-.66,1.7,1.7,0,0,0-.24-.5A.94.94,0,0,0,133,125a2.42,2.42,0,0,0-.68-.08h-1v2.77a2.9,2.9,0,0,0,.06.66.61.61,0,0,0,.23.36,1,1,0,0,0,.46.16,7.37,7.37,0,0,0,.83,0h.57a5.66,5.66,0,0,0,.59,0,3.57,3.57,0,0,0,.51-.09.79.79,0,0,0,.38-.19,4.17,4.17,0,0,0,.63-.95,6.42,6.42,0,0,0,.42-.94Z"/><path class="cls-2" d="M146.85,120.69a2.92,2.92,0,0,0-.56.1,2,2,0,0,0-.54.2.92.92,0,0,0-.32.63,7,7,0,0,0-.08,1.17v6.77h-.57l-5.6-7.57v4.77a5.72,5.72,0,0,0,.1,1.23,1.14,1.14,0,0,0,.31.61,1.52,1.52,0,0,0,.62.27,3.8,3.8,0,0,0,.62.13v.46H137V129a3.64,3.64,0,0,0,.59-.13,1.57,1.57,0,0,0,.52-.21,1,1,0,0,0,.31-.56,6.61,6.61,0,0,0,.08-1.28v-4.56a1.82,1.82,0,0,0-.1-.6,1.12,1.12,0,0,0-.28-.46,2,2,0,0,0-.64-.37,2.27,2.27,0,0,0-.65-.17v-.46h2.64l5.2,7.05v-4.4a5.63,5.63,0,0,0-.1-1.24,1,1,0,0,0-.3-.58,2.19,2.19,0,0,0-.6-.24,3.27,3.27,0,0,0-.63-.13v-.46h3.76Z"/><path class="cls-2" d="M155.13,122.74h-.45a3.12,3.12,0,0,0-.21-.56,5.07,5.07,0,0,0-.34-.61,3.05,3.05,0,0,0-.43-.52.85.85,0,0,0-.45-.26l-.51,0h-.95v7.4a.85.85,0,0,0,.09.39.61.61,0,0,0,.32.28,3.85,3.85,0,0,0,.49.12,3.62,3.62,0,0,0,.58.08v.46h-4.37V129l.56-.05a2.15,2.15,0,0,0,.52-.1.63.63,0,0,0,.32-.24.79.79,0,0,0,.1-.43v-7.46h-.88l-.57,0a.79.79,0,0,0-.45.26,3.42,3.42,0,0,0-.43.52,4.47,4.47,0,0,0-.35.62,3.81,3.81,0,0,0-.21.54h-.46v-2.51h8.06Z"/><path class="cls-1" d="M58.51,136.18l-1.36-1.12a2.85,2.85,0,0,1,2.78-1.9,2.71,2.71,0,0,1,1.66.51,1.68,1.68,0,0,1,.7,1.43,3.35,3.35,0,0,1-1.19,2.33l-2.46,2.43h2.12q1,0,1.21-1.24h.47l-.33,2.7h-5V141A29.29,29.29,0,0,0,60,137a4.59,4.59,0,0,0,.58-2,1.47,1.47,0,0,0-.27-.94.87.87,0,0,0-.73-.33,1,1,0,0,0-.87.46,2.25,2.25,0,0,0-.32,1.29A3.7,3.7,0,0,0,58.51,136.18Z"/><path class="cls-1" d="M69.55,137.4a5,5,0,0,1-.79,3,2.34,2.34,0,0,1-3.93,0,6.21,6.21,0,0,1,0-6.13,2.33,2.33,0,0,1,3.9,0A5.13,5.13,0,0,1,69.55,137.4Zm-1.63,1.12V136.4a5.63,5.63,0,0,0-.28-2.1.91.91,0,0,0-.86-.62q-.53,0-.81.67a5,5,0,0,0-.29,1.86V138q0,3,1.13,3T67.92,138.52Z"/><path class="cls-1" d="M71.61,134.39v-.45a5.55,5.55,0,0,0,2.59-.76h.29v6.62q0,1,1.15,1v.5H71.8v-.48a1,1,0,0,0,1.14-1.11v-4.53q0-.84-1-.84Z"/><path class="cls-1" d="M83.22,134.26l-1.51,1a2.21,2.21,0,0,0-.37-1.08.86.86,0,0,0-.69-.42q-1.15,0-1.19,3.13a2.51,2.51,0,0,1,1.69-.56,2,2,0,0,1,1.56.64,2.42,2.42,0,0,1,.59,1.74,2.82,2.82,0,0,1-.76,1.93,2.29,2.29,0,0,1-1.77.87,2.6,2.6,0,0,1-2.09-1.1,4.42,4.42,0,0,1-.88-2.84,5,5,0,0,1,.95-3.11,2.8,2.8,0,0,1,2.31-1.23A2.61,2.61,0,0,1,83.22,134.26Zm-3.79,3.13v.31q0,3.32,1.3,3.32a.88.88,0,0,0,.76-.41,1.93,1.93,0,0,0,.29-1.12,4.08,4.08,0,0,0-.37-1.86,1.12,1.12,0,0,0-1-.73A1.67,1.67,0,0,0,79.43,137.39Z"/><path class="cls-1" d="M93.45,136.71v1.38H89.93v-1.38Z"/><path class="cls-1" d="M101.47,136.18l-1.36-1.12a2.85,2.85,0,0,1,2.78-1.9,2.71,2.71,0,0,1,1.66.51,1.68,1.68,0,0,1,.7,1.43,3.35,3.35,0,0,1-1.19,2.33l-2.46,2.43h2.12q1,0,1.21-1.24h.47l-.33,2.7h-5V141a29.29,29.29,0,0,0,3-4.08,4.59,4.59,0,0,0,.58-2,1.47,1.47,0,0,0-.27-.94.87.87,0,0,0-.73-.33,1,1,0,0,0-.87.46,2.25,2.25,0,0,0-.32,1.29A3.7,3.7,0,0,0,101.47,136.18Z"/><path class="cls-1" d="M112.5,137.4a5,5,0,0,1-.79,3,2.34,2.34,0,0,1-3.93,0,6.21,6.21,0,0,1,0-6.13,2.33,2.33,0,0,1,3.9,0A5.13,5.13,0,0,1,112.5,137.4Zm-1.63,1.12V136.4a5.63,5.63,0,0,0-.28-2.1.91.91,0,0,0-.86-.62q-.53,0-.81.67a5,5,0,0,0-.29,1.86V138q0,3,1.13,3T110.87,138.52Z"/><path class="cls-1" d="M114.57,134.39v-.45a5.55,5.55,0,0,0,2.59-.76h.29v6.62q0,1,1.15,1v.5h-3.85v-.48a1,1,0,0,0,1.14-1.11v-4.53q0-.84-1-.84Z"/><path class="cls-1" d="M124.33,136.76a6,6,0,0,1,1.54,1.37,2.1,2.1,0,0,1,.34,1.15,2,2,0,0,1-.8,1.57,3,3,0,0,1-2,.66,3.14,3.14,0,0,1-2-.6,1.88,1.88,0,0,1-.77-1.56q0-1.21,1.79-1.92a4.62,4.62,0,0,1-1.23-1.16,1.89,1.89,0,0,1-.25-.9,2,2,0,0,1,.71-1.54,2.88,2.88,0,0,1,3.5-.08,1.67,1.67,0,0,1,.65,1.32Q125.87,136.17,124.33,136.76Zm-1.43.94a1.73,1.73,0,0,0-.61,2.83,1.57,1.57,0,0,0,1.16.51q1.44,0,1.44-1.25a1.26,1.26,0,0,0-.36-.82A8.65,8.65,0,0,0,122.9,137.71Zm1-1.19a1.42,1.42,0,0,0,.88-1.34,1.58,1.58,0,0,0-.37-1.08,1.22,1.22,0,0,0-1-.43,1.34,1.34,0,0,0-.92.28.94.94,0,0,0-.34.76,1.17,1.17,0,0,0,.26.71A6.38,6.38,0,0,0,123.94,136.52Z"/><rect class="cls-3" x="73.43" y="111.9" width="36.52" height="0.7"/><rect class="cls-1" x="143.89" y="17.77" width="50.56" height="0.7" transform="translate(62.36 -114.32) rotate(45)"/><rect class="cls-1" x="-7.16" y="159.11" width="50.56" height="0.7" transform="translate(118.06 33.89) rotate(45)"/></g></g></svg>